<?xml version="1.0" encoding="UTF-8"?>
<svg version="1.1" xmlns="http://www.w3.org/2000/svg" width="300" height="100">
<path d="M0 0 C0.66 0 1.32 0 2 0 C2.34123581 1.99866686 2.6725678 3.99902542 3 6 C3.185625 7.11375 3.37125 8.2275 3.5625 9.375 C4 13 4 13 4 21 C11.26 21 18.52 21 26 21 C24.76736651 24.69790046 23.79947549 24.9354846 20.4375 26.6875 C19.61121094 27.12449219 18.78492187 27.56148437 17.93359375 28.01171875 C17.29550781 28.33785156 16.65742187 28.66398437 16 29 C16.6705542 29.01458252 17.3411084 29.02916504 18.03198242 29.04418945 C21.08438822 29.118883 24.13572585 29.21547299 27.1875 29.3125 C28.77014648 29.34633789 28.77014648 29.34633789 30.38476562 29.38085938 C31.40634766 29.41630859 32.42792969 29.45175781 33.48046875 29.48828125 C34.88655396 29.52755737 34.88655396 29.52755737 36.32104492 29.56762695 C39.51734442 30.0834974 41.43208879 31.03980792 44 33 C44.97333827 36.89335307 45.27382218 39.17853346 44 43 C45.65 44.65 47.3 46.3 49 48 C49.556875 47.195625 50.11375 46.39125 50.6875 45.5625 C53.80280838 42.11040153 56.18659434 42.0973015 60.70727539 41.85473633 C63.82579199 41.83023915 66.94388013 41.81435301 70.0625 41.8125 C71.15111328 41.80025391 72.23972656 41.78800781 73.36132812 41.77539062 C74.93237305 41.77249023 74.93237305 41.77249023 76.53515625 41.76953125 C77.96420288 41.76336792 77.96420288 41.76336792 79.42211914 41.75708008 C82.10170161 42.00958359 83.66548542 42.72689046 86 44 C87.98317421 43.80866962 87.98317421 43.80866962 90 43.125 C96.86341129 41.36950701 104.02006896 41.42414215 111 42.5625 C113.9703417 42.99567483 115.18899383 42.71646695 118 42 C119.5397044 41.91052156 121.08269939 41.8693854 122.625 41.8671875 C123.49640625 41.86589844 124.3678125 41.86460938 125.265625 41.86328125 C126.16796875 41.86714844 127.0703125 41.87101562 128 41.875 C128.90234375 41.87113281 129.8046875 41.86726563 130.734375 41.86328125 C132.04148438 41.86521484 132.04148438 41.86521484 133.375 41.8671875 C134.16648438 41.86831543 134.95796875 41.86944336 135.7734375 41.87060547 C138 42 138 42 140.1015625 42.57080078 C142.20632739 43.21880322 142.20632739 43.21880322 145 42 C151.16 41.44 151.16 41.44 154.4375 43.625 C156.45932313 46.69817115 156.52755517 48.38247881 156 52 C154.9375 54.25 154.9375 54.25 153 56 C150.67974374 56.71084442 148.3465568 57.38148561 146 58 C145.99589111 58.57967529 145.99178223 59.15935059 145.98754883 59.7565918 C145.95450723 62.40124109 145.88385736 65.04361839 145.8125 67.6875 C145.80379883 69.05551758 145.80379883 69.05551758 145.79492188 70.45117188 C145.6462192 74.99486487 145.48151782 77.34020396 142.7421875 81.09375 C139.96530024 83.02412177 138.63416916 83.66426022 135.3125 83.8125 C134.44882813 83.85632813 133.58515625 83.90015625 132.6953125 83.9453125 C131.80585938 83.96335937 130.91640625 83.98140625 130 84 C129.11054688 84.03867188 128.22109375 84.07734375 127.3046875 84.1171875 C122.57261858 84.24431771 119.39002186 83.82917577 115 82 C112.25201283 82.28040685 109.76682597 82.76995221 107.125 83.5625 C102.15645597 84.58543554 97.87491356 84.61909076 93.3125 82.4375 C89.72182554 80.87928278 88.61137713 80.76452888 85 82 C84.2575 82.350625 83.515 82.70125 82.75 83.0625 C78.83295819 84.39785516 75.10015744 84.16079049 71 84 C70.89042969 84.62648438 70.78085938 85.25296875 70.66796875 85.8984375 C70.50941406 86.71570313 70.35085937 87.53296875 70.1875 88.375 C69.96126953 89.59316406 69.96126953 89.59316406 69.73046875 90.8359375 C69 93 69 93 66 95 C62.52075524 95.44415891 60.69082245 95.42943017 57.6875 93.5625 C55.57928799 90.36114103 55.64963067 88.01221193 55.4140625 84.26171875 C54.72708743 80.50927946 52.65088495 78.65088495 50 76 C49.236875 76.78375 48.47375 77.5675 47.6875 78.375 C41.75673595 84.1678393 36.123864 83.37230996 28.3215332 83.37060547 C26.0736107 83.37497839 23.82765321 83.41130369 21.58007812 83.44921875 C20.1484442 83.45508737 18.71680097 83.45905646 17.28515625 83.4609375 C15.33428101 83.47326416 15.33428101 83.47326416 13.34399414 83.48583984 C10 83 10 83 7.56298828 81.26513672 C5.74845021 78.63544533 5.56513822 77.45187125 5.70703125 74.296875 C5.72145264 73.40210449 5.73587402 72.50733398 5.75073242 71.58544922 C5.77111572 70.64975098 5.79149902 69.71405273 5.8125 68.75 C5.82449685 61.48956029 5.82449685 61.48956029 3.0859375 54.9453125 C0.80760183 52.97867096 -1.38069199 51.47033424 -4 50 C-5.34451788 49.01508912 -6.68165623 48.01968008 -8 47 C-7.67 46.34 -7.34 45.68 -7 45 C-3.37 47.31 0.26 49.62 4 52 C3.835 50.88625 3.67 49.7725 3.5 48.625 C3.38205078 47.53251953 3.38205078 47.53251953 3.26171875 46.41796875 C3.0832171 44.7688266 2.85431942 43.12455501 2.58203125 41.48828125 C2.28649194 38.69136571 2.22345099 36.71350934 3 34 C5.98653141 31.01895854 9.32645051 29.03636129 13 27 C13.99 26.34 14.98 25.68 16 25 C14.73542969 24.90912109 14.73542969 24.90912109 13.4453125 24.81640625 C11.80175781 24.69072266 11.80175781 24.69072266 10.125 24.5625 C9.03445312 24.48128906 7.94390625 24.40007813 6.8203125 24.31640625 C4 24 4 24 2 23 C1.37147066 20.66752185 0.84464754 18.30708533 0.375 15.9375 C-0.01558594 14.00197266 -0.01558594 14.00197266 -0.4140625 12.02734375 C-0.60742188 11.02832031 -0.80078125 10.02929688 -1 9 C-3.64 12.63 -6.28 16.26 -9 20 C-9.33 19.34 -9.66 18.68 -10 18 C-8.671875 15.64453125 -8.671875 15.64453125 -6.75 12.8125 C-3.9882146 8.62296526 -1.76993187 4.68511378 0 0 Z M21 45 C21 46.32 21 47.64 21 49 C24.63 49 28.26 49 32 49 C32.33 47.68 32.66 46.36 33 45 C29.04 45 25.08 45 21 45 Z M71.125 58.125 C69.75115632 61.63593385 69.90931394 63.41631723 71 67 C72.43691955 68.85801239 72.43691955 68.85801239 74 70 C76.46800047 68.84826645 78.04783565 67.95216435 80 66 C80.31537716 61.66356399 80.44897847 59.67346771 78 56 C74.52675621 55.28753974 73.50216659 55.43087786 71.125 58.125 Z M97.25 57.625 C95.62763131 60.70750051 95.49818235 62.55896468 96 66 C97.87501931 68.37719693 97.87501931 68.37719693 100 70 C103.16115776 68.63016497 103.9927092 68.0109362 106 65 C105.76787034 59.95998592 105.76787034 59.95998592 103 56 C99.09050872 55.54636593 99.09050872 55.54636593 97.25 57.625 Z M21 63 C21 64.98 21 66.96 21 69 C23.26979665 69.10794277 25.54105196 69.18556176 27.8125 69.25 C29.07707031 69.29640625 30.34164062 69.3428125 31.64453125 69.390625 C35.04540232 69.33966199 35.04540232 69.33966199 36.94921875 67.109375 C38.14862902 65.09440502 38.14862902 65.09440502 38 63 C32.39 63 26.78 63 21 63 Z " fill="#E5E8F4" transform="translate(71,2)"/>
<path d="M0 0 C0.66 0 1.32 0 2 0 C2.34123581 1.99866686 2.6725678 3.99902542 3 6 C3.185625 7.11375 3.37125 8.2275 3.5625 9.375 C4 13 4 13 4 21 C11.26 21 18.52 21 26 21 C24.76736651 24.69790046 23.79947549 24.9354846 20.4375 26.6875 C19.61121094 27.12449219 18.78492187 27.56148437 17.93359375 28.01171875 C17.29550781 28.33785156 16.65742187 28.66398437 16 29 C16.6705542 29.01458252 17.3411084 29.02916504 18.03198242 29.04418945 C21.08438822 29.118883 24.13572585 29.21547299 27.1875 29.3125 C28.77014648 29.34633789 28.77014648 29.34633789 30.38476562 29.38085938 C31.40634766 29.41630859 32.42792969 29.45175781 33.48046875 29.48828125 C34.88655396 29.52755737 34.88655396 29.52755737 36.32104492 29.56762695 C39.51734442 30.0834974 41.43208879 31.03980792 44 33 C44.97333827 36.89335307 45.27382218 39.17853346 44 43 C45.65 44.65 47.3 46.3 49 48 C49.556875 47.195625 50.11375 46.39125 50.6875 45.5625 C54.05643705 41.82935354 56.78901333 42.06635543 61.70703125 41.796875 C76.54610151 41.50950496 76.54610151 41.50950496 82 45 C84.66057576 51.09715277 84.84302091 58.42806277 84 65 C82.24765052 68.607144 80.1727431 71.52854058 77 74 C74.08984375 74.42578125 74.08984375 74.42578125 70.9375 74.3125 C69.89464844 74.28800781 68.85179687 74.26351562 67.77734375 74.23828125 C65 74 65 74 62 73 C62 77.62 62 82.24 62 87 C60.35 87 58.7 87 57 87 C57 83.04 57 79.08 57 75 C55.02 74.505 55.02 74.505 53 74 C51.296875 72.00390625 51.296875 72.00390625 49.75 69.5625 C48.96882813 68.35787109 48.96882813 68.35787109 48.171875 67.12890625 C47 65 47 65 47 63 C44.98503253 64.85996997 43.24766527 66.5139847 41.99389648 68.97436523 C40.5626479 71.56653183 39.34337022 73.16410134 37 75 C31.87588541 76.0405261 26.8733548 75.79972977 21.6875 75.5625 C20.27807072 75.53091297 18.86855695 75.50288345 17.45898438 75.47851562 C7.24613981 75.24613981 7.24613981 75.24613981 6 74 C6 72.20922208 6.00185789 70.41841952 6.0144043 68.62768555 C6.01364147 61.53430902 6.01364147 61.53430902 3.07421875 55.265625 C0.80257264 53.28769418 -1.46179195 51.61677454 -4 50 C-5.33905991 49.00768133 -6.67435011 48.01016342 -8 47 C-7.67 46.34 -7.34 45.68 -7 45 C-3.37 47.31 0.26 49.62 4 52 C3.835 50.88625 3.67 49.7725 3.5 48.625 C3.38205078 47.53251953 3.38205078 47.53251953 3.26171875 46.41796875 C3.0832171 44.7688266 2.85431942 43.12455501 2.58203125 41.48828125 C2.28649194 38.69136571 2.22345099 36.71350934 3 34 C5.98653141 31.01895854 9.32645051 29.03636129 13 27 C13.99 26.34 14.98 25.68 16 25 C14.73542969 24.90912109 14.73542969 24.90912109 13.4453125 24.81640625 C11.80175781 24.69072266 11.80175781 24.69072266 10.125 24.5625 C9.03445312 24.48128906 7.94390625 24.40007813 6.8203125 24.31640625 C4 24 4 24 2 23 C1.37147066 20.66752185 0.84464754 18.30708533 0.375 15.9375 C-0.01558594 14.00197266 -0.01558594 14.00197266 -0.4140625 12.02734375 C-0.60742188 11.02832031 -0.80078125 10.02929688 -1 9 C-3.64 12.63 -6.28 16.26 -9 20 C-9.33 19.34 -9.66 18.68 -10 18 C-8.671875 15.64453125 -8.671875 15.64453125 -6.75 12.8125 C-3.9882146 8.62296526 -1.76993187 4.68511378 0 0 Z M21 45 C21 46.32 21 47.64 21 49 C24.63 49 28.26 49 32 49 C32.33 47.68 32.66 46.36 33 45 C29.04 45 25.08 45 21 45 Z M71.125 58.125 C69.75115632 61.63593385 69.90931394 63.41631723 71 67 C72.43691955 68.85801239 72.43691955 68.85801239 74 70 C76.46800047 68.84826645 78.04783565 67.95216435 80 66 C80.31537716 61.66356399 80.44897847 59.67346771 78 56 C74.52675621 55.28753974 73.50216659 55.43087786 71.125 58.125 Z M21 63 C21 64.98 21 66.96 21 69 C23.26979665 69.10794277 25.54105196 69.18556176 27.8125 69.25 C29.07707031 69.29640625 30.34164062 69.3428125 31.64453125 69.390625 C35.04540232 69.33966199 35.04540232 69.33966199 36.94921875 67.109375 C38.14862902 65.09440502 38.14862902 65.09440502 38 63 C32.39 63 26.78 63 21 63 Z " fill="#BBBDC5" transform="translate(71,2)"/>
<path d="M0 0 C3.375 0.3125 3.375 0.3125 7 1 C9.32579101 4.48868651 9.41865457 5.89718519 9 10 C7.9375 12.25 7.9375 12.25 6 14 C3.67974374 14.71084442 1.3465568 15.38148561 -1 16 C-1.00410889 16.57967529 -1.00821777 17.15935059 -1.01245117 17.7565918 C-1.04549277 20.40124109 -1.11614264 23.04361839 -1.1875 25.6875 C-1.19620117 27.05551758 -1.19620117 27.05551758 -1.20507812 28.45117188 C-1.3537808 32.99486487 -1.51848218 35.34020396 -4.2578125 39.09375 C-7.03469976 41.02412177 -8.36583084 41.66426022 -11.6875 41.8125 C-12.55117187 41.85632813 -13.41484375 41.90015625 -14.3046875 41.9453125 C-15.19414062 41.96335938 -16.08359375 41.98140625 -17 42 C-17.88945312 42.03867188 -18.77890625 42.07734375 -19.6953125 42.1171875 C-24.42738142 42.24431771 -27.60997814 41.82917577 -32 40 C-34.74798717 40.28040685 -37.23317403 40.76995221 -39.875 41.5625 C-44.84354403 42.58543554 -49.12508644 42.61909076 -53.6875 40.4375 C-57.27817446 38.87928278 -58.38862287 38.76452888 -62 40 C-62.7425 40.350625 -63.485 40.70125 -64.25 41.0625 C-68.16704181 42.39785516 -71.89984256 42.16079049 -76 42 C-76.16435547 42.93972656 -76.16435547 42.93972656 -76.33203125 43.8984375 C-76.49058594 44.71570313 -76.64914063 45.53296875 -76.8125 46.375 C-76.96332031 47.18710938 -77.11414063 47.99921875 -77.26953125 48.8359375 C-78 51 -78 51 -81 53 C-84.47924476 53.44415891 -86.30917755 53.42943017 -89.3125 51.5625 C-91.42071201 48.36114103 -91.35036933 46.01221193 -91.5859375 42.26171875 C-92.27291257 38.50927946 -94.34911505 36.65088495 -97 34 C-97.763125 34.78375 -98.52625 35.5675 -99.3125 36.375 C-105.24326405 42.1678393 -110.876136 41.37230996 -118.6784668 41.37060547 C-120.9263893 41.37497839 -123.17234679 41.41130369 -125.41992188 41.44921875 C-126.8515558 41.45508737 -128.28319903 41.45905646 -129.71484375 41.4609375 C-131.01542725 41.46915527 -132.31601074 41.47737305 -133.65600586 41.48583984 C-137 41 -137 41 -139.45532227 39.28369141 C-141.26641564 36.60612424 -141.35198976 35.1679078 -141 32 C-140.1028125 32.05760498 -139.205625 32.11520996 -138.28125 32.17456055 C-134.91830878 32.3632483 -131.56105053 32.50039879 -128.19482422 32.60424805 C-126.74502363 32.65924048 -125.29582427 32.73407754 -123.84814453 32.82983398 C-119.02581683 33.14057667 -114.70714396 33.2006834 -110 32 C-107.10110105 29.33311724 -105.31955211 26.80041463 -103.3828125 23.38208008 C-102.92648438 22.59599365 -102.47015625 21.80990723 -102 21 C-101.34 21 -100.68 21 -100 21 C-98.11463577 23.75762913 -96.45394308 26.62108546 -94.75390625 29.49609375 C-93.1809899 32.27055597 -93.1809899 32.27055597 -90 33 C-90 36.96 -90 40.92 -90 45 C-88.35 45 -86.7 45 -85 45 C-85 40.38 -85 35.76 -85 31 C-80 32 -80 32 -78 33 C-71.89636404 33.59839568 -68.93842298 32.29228199 -64 29 C-63.34 28.34 -62.68 27.68 -62 27 C-61.4225 27.61875 -60.845 28.2375 -60.25 28.875 C-56.39570136 32.51517093 -53.61628086 33.41191375 -48.21484375 33.3515625 C-45.59728125 32.93607639 -43.71804074 31.97486109 -41.375 30.75 C-39.0859375 29.625 -39.0859375 29.625 -37 29 C-34 30.75 -34 30.75 -31 33 C-25.65963123 33.7966296 -20.28709799 32.8293487 -15 32 C-13.68 32 -12.36 32 -11 32 C-10.98018066 31.44538086 -10.96036133 30.89076172 -10.93994141 30.31933594 C-10.84442349 27.79576307 -10.73485433 25.27298776 -10.625 22.75 C-10.5940625 21.87730469 -10.563125 21.00460938 -10.53125 20.10546875 C-10.47324219 18.83896484 -10.47324219 18.83896484 -10.4140625 17.546875 C-10.3826416 16.77182617 -10.3512207 15.99677734 -10.31884766 15.19824219 C-9.960492 12.72761864 -9.33585248 11.10603821 -8 9 C-4.76967782 7.07555275 -2.78176921 6 1 6 C0.67 4.02 0.34 2.04 0 0 Z " fill="#010101" transform="translate(218,44)"/>
<path d="M0 0 C0.66 0 1.32 0 2 0 C2.34123581 1.99866686 2.6725678 3.99902542 3 6 C3.185625 7.11375 3.37125 8.2275 3.5625 9.375 C4 13 4 13 4 21 C11.26 21 18.52 21 26 21 C24.26143064 26.21570807 18.70249882 27.56767302 14 30 C21.26 30.33 28.52 30.66 36 31 C36.495 33.475 36.495 33.475 37 36 C36 37 36 37 33.77514648 37.11352539 C32.81680908 37.10828857 31.85847168 37.10305176 30.87109375 37.09765625 C29.83662109 37.09443359 28.80214844 37.09121094 27.73632812 37.08789062 C26.64771484 37.07951172 25.55910156 37.07113281 24.4375 37.0625 C22.7987793 37.05573242 22.7987793 37.05573242 21.12695312 37.04882812 C18.41794568 37.0369984 15.7089662 37.01906231 13 37 C13 41.29 13 45.58 13 50 C20.26 50 27.52 50 35 50 C35 51.65 35 53.3 35 55 C27.74 55 20.48 55 13 55 C13 59.95 13 64.9 13 70 C14.485 70.495 14.485 70.495 16 71 C15.34 71 14.68 71 14 71 C14 71.66 14 72.32 14 73 C10.52692308 75.10865385 10.52692308 75.10865385 7.859375 74.55859375 C7.24578125 74.37425781 6.6321875 74.18992187 6 74 C6.03222656 72.9378125 6.06445312 71.875625 6.09765625 70.78125 C6.2543663 62.5713994 6.2543663 62.5713994 3.0703125 55.26171875 C0.80004664 53.28547092 -1.46356729 51.61564369 -4 50 C-5.33905991 49.00768133 -6.67435011 48.01016342 -8 47 C-7.67 46.34 -7.34 45.68 -7 45 C-3.37 47.31 0.26 49.62 4 52 C3.835 50.88625 3.67 49.7725 3.5 48.625 C3.38205078 47.53251953 3.38205078 47.53251953 3.26171875 46.41796875 C3.0832171 44.7688266 2.85431942 43.12455501 2.58203125 41.48828125 C2.28649194 38.69136571 2.22345099 36.71350934 3 34 C5.98653141 31.01895854 9.32645051 29.03636129 13 27 C13.99 26.34 14.98 25.68 16 25 C14.73542969 24.90912109 14.73542969 24.90912109 13.4453125 24.81640625 C11.80175781 24.69072266 11.80175781 24.69072266 10.125 24.5625 C9.03445312 24.48128906 7.94390625 24.40007813 6.8203125 24.31640625 C4 24 4 24 2 23 C1.37147066 20.66752185 0.84464754 18.30708533 0.375 15.9375 C-0.01558594 14.00197266 -0.01558594 14.00197266 -0.4140625 12.02734375 C-0.60742188 11.02832031 -0.80078125 10.02929688 -1 9 C-3.64 12.63 -6.28 16.26 -9 20 C-9.33 19.34 -9.66 18.68 -10 18 C-8.671875 15.64453125 -8.671875 15.64453125 -6.75 12.8125 C-3.9882146 8.62296526 -1.76993187 4.68511378 0 0 Z " fill="#E9EBF7" transform="translate(71,2)"/>
<path d="M0 0 C4.2290362 -0.08725659 8.45784012 -0.1404789 12.6875 -0.1875 C13.88568359 -0.21263672 15.08386719 -0.23777344 16.31835938 -0.26367188 C17.47529297 -0.27333984 18.63222656 -0.28300781 19.82421875 -0.29296875 C20.88729248 -0.3086792 21.95036621 -0.32438965 23.0456543 -0.34057617 C26.45737947 0.05272658 28.30568424 0.88743564 31 3 C31.97333827 6.89335307 32.27382218 9.17853346 31 13 C33.475 15.475 33.475 15.475 36 18 C35.34 19.65 34.68 21.3 34 23 C29.97449681 21.6581656 29.11714364 19.5772427 27 16 C27 15.34 27 14.68 27 14 C24.66705225 13.95758277 22.33297433 13.95907063 20 14 C19.67 14.33 19.34 14.66 19 15 C17.14712498 15.07226502 15.29166122 15.0838122 13.4375 15.0625 C12.42558594 15.05347656 11.41367188 15.04445313 10.37109375 15.03515625 C9.19740234 15.01775391 9.19740234 15.01775391 8 15 C8 16.32 8 17.64 8 19 C11.63 19 15.26 19 19 19 C19 18.34 19 17.68 19 17 C22.68646141 18.45855647 24.16143971 20.30229045 26.25 23.625 C26.77078125 24.44226563 27.2915625 25.25953125 27.828125 26.1015625 C28.21484375 26.72804688 28.6015625 27.35453125 29 28 C28.07421875 30.48046875 28.07421875 30.48046875 26 33 C22.92924082 33.65475435 19.93480827 33.46946059 16.8125 33.3125 C15.96751953 33.28994141 15.12253906 33.26738281 14.25195312 33.24414062 C12.16721202 33.18524963 10.08338196 33.09556798 8 33 C8 34.98 8 36.96 8 39 C12.29 39 16.58 39 21 39 C21 39.33 21 39.66 21 40 C14.07 40 7.14 40 0 40 C0 35.05 0 30.1 0 25 C7.26 25 14.52 25 22 25 C22 23.35 22 21.7 22 20 C14.74 20 7.48 20 0 20 C0 15.71 0 11.42 0 7 C7.59 6.67 15.18 6.34 23 6 C23 4.68 23 3.36 23 2 C11.615 1.505 11.615 1.505 0 1 C0 0.67 0 0.34 0 0 Z " fill="#000000" transform="translate(84,32)"/>
<path d="M0 0 C4.35289179 -0.08883453 8.49421793 -0.07462358 12.8125 0.5625 C15.8917535 0.98514264 17.10953709 0.74084996 20 0 C21.5397044 -0.08947844 23.08269939 -0.1306146 24.625 -0.1328125 C25.49640625 -0.13410156 26.3678125 -0.13539062 27.265625 -0.13671875 C28.16796875 -0.13285156 29.0703125 -0.12898438 30 -0.125 C30.90234375 -0.12886719 31.8046875 -0.13273437 32.734375 -0.13671875 C34.04148437 -0.13478516 34.04148437 -0.13478516 35.375 -0.1328125 C36.16648438 -0.13168457 36.95796875 -0.13055664 37.7734375 -0.12939453 C40 0 40 0 42.12109375 0.53955078 C44.61176891 1.14992154 46.5236991 0.53541641 49 0 C50 1 50 1 50.0625 3.5625 C50.041875 4.366875 50.02125 5.17125 50 6 C49.04287109 6.25523438 49.04287109 6.25523438 48.06640625 6.515625 C47.24011719 6.75796875 46.41382813 7.0003125 45.5625 7.25 C44.73878906 7.48203125 43.91507813 7.7140625 43.06640625 7.953125 C40.84507116 8.77650872 40.84507116 8.77650872 40.390625 10.78125 C39.99036136 13.05474748 39.79264248 15.24127324 39.68359375 17.546875 C39.62075195 18.81337891 39.62075195 18.81337891 39.55664062 20.10546875 C39.51732422 20.97816406 39.47800781 21.85085937 39.4375 22.75 C39.37272461 24.08224609 39.37272461 24.08224609 39.30664062 25.44140625 C39.20086385 27.62745963 39.09877454 29.81362089 39 32 C36.525 32.495 36.525 32.495 34 33 C34.30782496 31.35328588 34.62139234 29.70764424 34.9375 28.0625 C35.11152344 27.14597656 35.28554687 26.22945312 35.46484375 25.28515625 C36 23 36 23 37 22 C37.23075082 20.65252916 37.41153063 19.29622435 37.5625 17.9375 C37.706875 16.638125 37.85125 15.33875 38 14 C35.525 13.505 35.525 13.505 33 13 C32.67 14.32 32.34 15.64 32 17 C27.38 15.68 22.76 14.36 18 13 C20.57404971 16.86107457 22.61020259 16.94319692 27 18 C27 18.99 27 19.98 27 21 C28.32 21.66 29.64 22.32 31 23 C30.01 25.475 30.01 25.475 29 28 C21.85076531 29.33290816 21.85076531 29.33290816 18.125 27.875 C15.70874038 25.74300621 14.91013368 24.06135874 14 21 C13.67 21 13.34 21 13 21 C12.96132812 19.67935547 12.96132812 19.67935547 12.921875 18.33203125 C12.86515625 17.17058594 12.8084375 16.00914063 12.75 14.8125 C12.70359375 13.66394531 12.6571875 12.51539063 12.609375 11.33203125 C11.89653517 7.43425959 10.82458935 5.74502345 8 3 C5.91365324 2.00243506 5.91365324 2.00243506 3.75 1.6875 C1.89375 1.3471875 1.89375 1.3471875 0 1 C0 0.67 0 0.34 0 0 Z " fill="#AFB6CC" transform="translate(169,44)"/>
<path d="M0 0 C2.31 0 4.62 0 7 0 C7.33 0.66 7.66 1.32 8 2 C7.67 2.66 7.34 3.32 7 4 C7.58007812 4.01417969 8.16015625 4.02835938 8.7578125 4.04296875 C14.84590298 4.41468385 17.77391948 5.56261546 22 10 C23.28317892 13.84953676 23.06643637 16.94738135 23 21 C22 19 21 17 20 15 C18.35 15 16.7 15 15 15 C13.01025287 17.80905477 12.8988988 19.87286664 13.25 23.1875 C13.4975 24.445625 13.745 25.70375 14 27 C14.66 27.33 15.32 27.66 16 28 C14.3125 28.6875 14.3125 28.6875 12 29 C9.3125 27.75 9.3125 27.75 7 26 C6.67 25.01 6.34 24.02 6 23 C5.01 22.67 4.02 22.34 3 22 C2.67 19.03 2.34 16.06 2 13 C1.01 13.495 1.01 13.495 0 14 C-0.46898963 16.8159849 -0.46898963 16.8159849 -0.625 20.0625 C-0.69976562 21.16722656 -0.77453125 22.27195312 -0.8515625 23.41015625 C-0.90054688 24.26480469 -0.94953125 25.11945313 -1 26 C-1.60328125 25.39285156 -2.2065625 24.78570312 -2.828125 24.16015625 C-4.44023309 22.55674658 -6.08652635 20.98755499 -7.75 19.4375 C-10 17 -10 17 -10 14 C-9.34 14 -8.68 14 -8 14 C-7.83177734 13.12601563 -7.83177734 13.12601563 -7.66015625 12.234375 C-6.93999124 9.79689343 -5.95620605 8.2749414 -4.4375 6.25 C-3.98246094 5.63640625 -3.52742188 5.0228125 -3.05859375 4.390625 C-2.70925781 3.93171875 -2.35992187 3.4728125 -2 3 C0.97 3.495 0.97 3.495 4 4 C4 3.01 4 2.02 4 1 C2.68 0.67 1.36 0.34 0 0 Z " fill="#010101" transform="translate(129,44)"/>
<path d="M0 0 C0.66 0 1.32 0 2 0 C2.33 3.63 2.66 7.26 3 11 C6.63 11 10.26 11 14 11 C13.67 11.99 13.34 12.98 13 14 C11.66535966 14.64615779 10.30733587 15.24475497 8.9375 15.8125 C6.64999311 16.96553387 6.64999311 16.96553387 5 19 C4.27431504 23.73039084 4.53721133 28.24998847 5 33 C2.4683886 31.52426593 0.20797592 30.19455812 -1.9375 28.1875 C-4.04241612 26.67667713 -4.04241612 26.67667713 -6.9375 27.5625 C-10.06518813 29.03059851 -12.35747595 30.79789663 -15 33 C-15.66 33 -16.32 33 -17 33 C-15.9214967 30.17929907 -14.7733663 27.5887018 -13.3125 24.9375 C-11.87594819 22.22199389 -11.87594819 22.22199389 -11.9375 19.9375 C-13.61183771 16.88429593 -16.30381696 15.17989267 -19 13 C-19 12.34 -19 11.68 -19 11 C-17.82244141 11.19142578 -17.82244141 11.19142578 -16.62109375 11.38671875 C-13.13415982 11.71615913 -10.42212471 11.798923 -7 11 C-4.4892173 8.30895598 -2.96696104 5.68117698 -1.3046875 2.40625 C-0.87414062 1.6121875 -0.44359375 0.818125 0 0 Z " fill="#C0C2D0" transform="translate(68,16)"/>
<path d="M0 0 C-0.33 1.65 -0.66 3.3 -1 5 C-8.59 5 -16.18 5 -24 5 C-24 9.29 -24 13.58 -24 18 C-16.74 18 -9.48 18 -2 18 C-2 19.65 -2 21.3 -2 23 C-9.26 23 -16.52 23 -24 23 C-24 27.62 -24 32.24 -24 37 C-27.39045377 32.47939497 -27.31876425 31.35720001 -27.125 25.9375 C-26.91566867 20.87664881 -26.91566867 20.87664881 -28 16 C-28.09455661 14.02265434 -28.12989394 12.04209917 -28.125 10.0625 C-28.12757812 9.02222656 -28.13015625 7.98195313 -28.1328125 6.91015625 C-28.01846071 4.40450673 -27.64878146 2.39894516 -27 0 C-23.25044125 -0.19713345 -19.50034696 -0.3810316 -15.75 -0.5625 C-14.68652344 -0.61857422 -13.62304688 -0.67464844 -12.52734375 -0.73242188 C-11.50253906 -0.78076172 -10.47773437 -0.82910156 -9.421875 -0.87890625 C-8.47924805 -0.9260376 -7.53662109 -0.97316895 -6.56542969 -1.02172852 C-4.17740544 -1.00150258 -2.27325608 -0.69460602 0 0 Z " fill="#CFD9F7" transform="translate(108,34)"/>
<path d="M0 0 C4.96916636 0.51405169 9.29026351 1.23384882 14 3 C14.33 2.01 14.66 1.02 15 0 C17.475 0.495 17.475 0.495 20 1 C20.09765625 7.15234375 20.09765625 7.15234375 20 9 C19.67 9.33 19.34 9.66 19 10 C18.76924918 11.34747084 18.58846937 12.70377565 18.4375 14.0625 C18.293125 15.361875 18.14875 16.66125 18 18 C12.09193774 20.34646444 6.39223354 22.16543484 0 21 C-1.83984375 19.95703125 -1.83984375 19.95703125 -3.5625 18.75 C-6.68966259 16.64853527 -6.68966259 16.64853527 -8.9296875 17.625 C-10.27963887 18.38139298 -11.6170195 19.16062582 -12.94140625 19.9609375 C-16.40805739 21.71070828 -19.17947929 21.39522628 -23 21 C-23.66 20.34 -24.32 19.68 -25 19 C-24.10796875 18.90203125 -23.2159375 18.8040625 -22.296875 18.703125 C-21.12640625 18.55359375 -19.9559375 18.4040625 -18.75 18.25 C-17.58984375 18.11078125 -16.4296875 17.9715625 -15.234375 17.828125 C-11.56436328 16.88846016 -10.31379971 15.944836 -8 13 C-6.71219705 10.90099868 -6.71219705 10.90099868 -5.75 8.75 C-5.24726563 7.69039062 -5.24726563 7.69039062 -4.734375 6.609375 C-4.49203125 6.07828125 -4.2496875 5.5471875 -4 5 C-3.85691406 5.60457031 -3.71382812 6.20914063 -3.56640625 6.83203125 C-2.78904465 9.80744979 -1.99317552 11.62104857 0 14 C3.9287966 15.20570585 7.10696666 15.29767778 11 14 C11.73323796 11.98491642 11.73323796 11.98491642 12 10 C11.01 9.34 10.02 8.68 9 8 C9 7.01 9 6.02 9 5 C7.88625 4.9175 6.7725 4.835 5.625 4.75 C2 4 2 4 0.5625 1.9375 C0.376875 1.298125 0.19125 0.65875 0 0 Z " fill="#95969E" transform="translate(187,57)"/>
<path d="M0 0 C3.1875 0 3.1875 0 7 1 C8.63045226 2.95992189 9.77649603 4.93118696 10.95703125 7.1875 C11.87414248 9.16715104 11.87414248 9.16715104 14 10 C14.2475 9.46375 14.495 8.9275 14.75 8.375 C15.36875 7.199375 15.36875 7.199375 16 6 C16.7734375 4.39125 16.7734375 4.39125 17.5625 2.75 C20 0 20 0 22.26171875 -0.3828125 C24.53659267 -0.37567004 26.74094806 -0.26065984 29 0 C29 0.99 29 1.98 29 3 C27.02 2.67 25.04 2.34 23 2 C22.7525 2.515625 22.505 3.03125 22.25 3.5625 C17.49484536 12.83505155 17.49484536 12.83505155 14 14 C13.29770044 15.65196778 12.63633427 17.32151827 12 19 C10.86525443 20.60122297 9.67574425 22.16489904 8.4375 23.6875 C5.97527569 26.68776321 5.97527569 26.68776321 4 30 C-3.59 30 -11.18 30 -19 30 C-19 29.34 -19 28.68 -19 28 C-16.25959389 26.62979694 -13.77801892 27.02689044 -10.77685547 27.06420898 C-2.94035075 27.22179844 -2.94035075 27.22179844 3.74609375 23.7109375 C5.44874599 21.19766704 6.83179018 18.7986244 8 16 C5.28316728 11.06945173 2.33342102 6.53715638 -1 2 C-0.67 1.34 -0.34 0.68 0 0 Z " fill="#EAEDFA" transform="translate(104,45)"/>
<path d="M0 0 C1.3303125 0.2784375 1.3303125 0.2784375 2.6875 0.5625 C5.86450218 0.98210406 7.92408923 0.70306532 11 0 C12 1 12 1 12.0625 3.5625 C12.041875 4.366875 12.02125 5.17125 12 6 C11.04287109 6.25523438 11.04287109 6.25523438 10.06640625 6.515625 C9.24011719 6.75796875 8.41382813 7.0003125 7.5625 7.25 C6.73878906 7.48203125 5.91507813 7.7140625 5.06640625 7.953125 C2.84507116 8.77650872 2.84507116 8.77650872 2.390625 10.78125 C1.99036136 13.05474748 1.79264248 15.24127324 1.68359375 17.546875 C1.64169922 18.39121094 1.59980469 19.23554687 1.55664062 20.10546875 C1.51732422 20.97816406 1.47800781 21.85085937 1.4375 22.75 C1.39431641 23.63816406 1.35113281 24.52632812 1.30664062 25.44140625 C1.20086385 27.62745963 1.09877454 29.81362089 1 32 C-1.475 32.495 -1.475 32.495 -4 33 C-3.69217504 31.35328588 -3.37860766 29.70764424 -3.0625 28.0625 C-2.80146484 26.68771484 -2.80146484 26.68771484 -2.53515625 25.28515625 C-2 23 -2 23 -1 22 C-0.76924918 20.65252916 -0.58846937 19.29622435 -0.4375 17.9375 C-0.293125 16.638125 -0.14875 15.33875 0 14 C-2.475 13.505 -2.475 13.505 -5 13 C-5.33 14.32 -5.66 15.64 -6 17 C-8.48666609 16.26985978 -10.96235995 15.5174505 -13.4375 14.75 C-14.14455078 14.54503906 -14.85160156 14.34007812 -15.58007812 14.12890625 C-20.73056322 12.50243727 -20.73056322 12.50243727 -22.09765625 9.953125 C-22 8 -22 8 -20 6 C-15.33911524 5.21250277 -11.91929912 5.39964139 -7.9375 8 C-7.298125 8.66 -6.65875 9.32 -6 10 C-5.67 8.35 -5.34 6.7 -5 5 C-2.525 5.495 -2.525 5.495 0 6 C0 4.02 0 2.04 0 0 Z " fill="#8E93A5" transform="translate(207,44)"/>
<path d="M0 0 C3.55104382 0.07747732 4.14560345 0.40451761 7.125 2.75 C10.39173534 7.00665513 10.28623257 10.20467403 10.1875 15.4375 C8.85416667 13.4375 7.52083333 11.4375 6.1875 9.4375 C3.71483235 9.78194881 3.71483235 9.78194881 1.1875 10.4375 C-0.21707737 13.24665474 -0.06145157 15.32560534 0.1875 18.4375 C1.56676773 20.78011608 1.56676773 20.78011608 3.1875 22.4375 C1.0625 23.25 1.0625 23.25 -1.8125 23.4375 C-7.24533582 19.57182836 -7.24533582 19.57182836 -8.8125 16.4375 C-9.36641144 11.01555915 -9.30304186 6.86780313 -5.8125 2.4375 C-3.8125 0.4375 -3.8125 0.4375 0 0 Z " fill="#010101" transform="translate(167.8125,49.5625)"/>
<path d="M0 0 C2.31 0 4.62 0 7 0 C7.33 0.66 7.66 1.32 8 2 C7.67 2.66 7.34 3.32 7 4 C9.97 4.33 12.94 4.66 16 5 C16 5.33 16 5.66 16 6 C14.9275 6.04125 13.855 6.0825 12.75 6.125 C8.89431754 6.67673599 8.89431754 6.67673599 6.5625 9.4375 C4.52128681 14.09146607 4.64409992 17.99762661 5 23 C4.34 22.67 3.68 22.34 3 22 C2.5859375 19.93359375 2.5859375 19.93359375 2.375 17.4375 C2.26285156 16.19806641 2.26285156 16.19806641 2.1484375 14.93359375 C2.09945312 14.29550781 2.05046875 13.65742187 2 13 C1.01 13.495 1.01 13.495 0 14 C-0.46898963 16.8159849 -0.46898963 16.8159849 -0.625 20.0625 C-0.69976562 21.16722656 -0.77453125 22.27195312 -0.8515625 23.41015625 C-0.90054688 24.26480469 -0.94953125 25.11945313 -1 26 C-1.60328125 25.39285156 -2.2065625 24.78570312 -2.828125 24.16015625 C-4.44023309 22.55674658 -6.08652635 20.98755499 -7.75 19.4375 C-10 17 -10 17 -10 14 C-9.34 14 -8.68 14 -8 14 C-7.83177734 13.12601563 -7.83177734 13.12601563 -7.66015625 12.234375 C-6.93999124 9.79689343 -5.95620605 8.2749414 -4.4375 6.25 C-3.98246094 5.63640625 -3.52742188 5.0228125 -3.05859375 4.390625 C-2.70925781 3.93171875 -2.35992187 3.4728125 -2 3 C0.97 3.495 0.97 3.495 4 4 C4 3.01 4 2.02 4 1 C2.68 0.67 1.36 0.34 0 0 Z " fill="#9FA3B4" transform="translate(129,44)"/>
<path d="M0 0 C0.76183594 0.07863281 1.52367187 0.15726563 2.30859375 0.23828125 C4.7458779 0.72404846 6.47856121 1.32998868 8.5625 2.6875 C10.91564511 9.04099179 11.42445221 15.96798005 10.5625 22.6875 C9.13671875 25.40625 9.13671875 25.40625 7.5625 27.6875 C7.0675 28.450625 6.5725 29.21375 6.0625 30 C1.94855576 32.77691236 -2.62037754 31.98649381 -7.4375 31.6875 C-7.7675 30.0375 -8.0975 28.3875 -8.4375 26.6875 C-7.220625 26.914375 -6.00375 27.14125 -4.75 27.375 C-1.6591967 27.75793138 -0.53547656 27.72796858 2.4375 26.5 C4.75861816 24.52022274 5.69597314 23.60218124 6.5625 20.6875 C6.98818872 15.32382209 7.02740261 12.05071069 3.5625 7.6875 C0.27758627 5.49755752 -1.26845639 5.33472661 -5.125 5.0625 C-6.61580078 4.95035156 -6.61580078 4.95035156 -8.13671875 4.8359375 C-8.89597656 4.78695312 -9.65523437 4.73796875 -10.4375 4.6875 C-9.7775 4.3575 -9.1175 4.0275 -8.4375 3.6875 C-8.1075 2.6975 -7.7775 1.7075 -7.4375 0.6875 C-4.43848764 -0.31217079 -3.06019291 -0.34575535 0 0 Z " fill="#E5E9FA" transform="translate(144.4375,44.3125)"/>
<path d="M0 0 C0.66 0 1.32 0 2 0 C2.33 3.63 2.66 7.26 3 11 C6.63 11 10.26 11 14 11 C13.67 11.99 13.34 12.98 13 14 C11.66535966 14.64615779 10.30733587 15.24475497 8.9375 15.8125 C6.64999311 16.96553387 6.64999311 16.96553387 5 19 C4.27431504 23.73039084 4.53721133 28.24998847 5 33 C-4.21284185 27.57431629 -4.21284185 27.57431629 -6 24 C-6.99 23.34 -7.98 22.68 -9 22 C-9.38218767 20.34385343 -9.71395102 18.67542976 -10 17 C-10.66 16.01 -11.32 15.02 -12 14 C-9.03 14.495 -9.03 14.495 -6 15 C-6 14.34 -6 13.68 -6 13 C-4 11.375 -4 11.375 -2 10 C-1.71125 10.61875 -1.4225 11.2375 -1.125 11.875 C-0.06279958 14.13325765 -0.06279958 14.13325765 2 16 C1.34 16.66 0.68 17.32 0 18 C-0.25005386 21.04182893 -0.25005386 21.04182893 0 24 C0.33 24.33 0.66 24.66 1 25 C1.10957031 24.36191406 1.21914062 23.72382812 1.33203125 23.06640625 C1.49058594 22.24011719 1.64914063 21.41382812 1.8125 20.5625 C1.96332031 19.73878906 2.11414063 18.91507813 2.26953125 18.06640625 C2.63111328 17.04353516 2.63111328 17.04353516 3 16 C3.99 15.67 4.98 15.34 6 15 C6 14.34 6 13.68 6 13 C3.525 12.505 3.525 12.505 1 12 C0.67 8.04 0.34 4.08 0 0 Z " fill="#AFAEAD" transform="translate(68,16)"/>
<path d="M0 0 C5.67276511 -0.29341888 8.99067246 -0.00559652 14 3 C13.34 4.65 12.68 6.3 12 8 C12.639375 7.505 13.27875 7.01 13.9375 6.5 C18.04023483 4.49049723 21.51443582 4.73614328 26 5 C26 5.33 26 5.66 26 6 C24.906875 6.103125 23.81375 6.20625 22.6875 6.3125 C18.55944323 7.04684828 18.55944323 7.04684828 16 10 C15.07649273 12.77052181 14.83670415 14.56688758 14.8125 17.4375 C14.79123047 18.58025391 14.79123047 18.58025391 14.76953125 19.74609375 C15.02387334 22.23347315 15.75982804 23.84808106 17 26 C16.34 26.33 15.68 26.66 15 27 C13.86649466 29.01669827 13.86649466 29.01669827 13 31 C12.34 30.01 11.68 29.02 11 28 C10.071875 28.804375 9.14375 29.60875 8.1875 30.4375 C4.0293933 34.04119247 0.444822 34.29699029 -5 34 C-5.66 33.34 -6.32 32.68 -7 32 C-6.33613281 31.98582031 -5.67226562 31.97164062 -4.98828125 31.95703125 C-0.31732693 31.70473153 2.27933198 31.5588854 6.0625 28.625 C10.69524458 22.34837831 9.42947132 13.67249239 8.5 6.25 C8.2525 4.64125 8.2525 4.64125 8 3 C5.36 2.34 2.72 1.68 0 1 C0 0.67 0 0.34 0 0 Z " fill="#808390" transform="translate(145,44)"/>
<path d="M0 0 C0.66 0 1.32 0 2 0 C2.34123581 1.99866686 2.6725678 3.99902542 3 6 C3.185625 7.11375 3.37125 8.2275 3.5625 9.375 C4 13 4 13 4 21 C11.26 21 18.52 21 26 21 C24.47346616 25.57960152 21.00623076 26.46812452 16.87890625 28.63671875 C13.59034139 30.1939903 10.54267182 31.21273959 7 32 C9.76571532 29.02941688 12.49721396 27.02731729 16 25 C14.73542969 24.90912109 14.73542969 24.90912109 13.4453125 24.81640625 C11.80175781 24.69072266 11.80175781 24.69072266 10.125 24.5625 C9.03445312 24.48128906 7.94390625 24.40007813 6.8203125 24.31640625 C4 24 4 24 2 23 C1.37147066 20.66752185 0.84464754 18.30708533 0.375 15.9375 C-0.01558594 14.00197266 -0.01558594 14.00197266 -0.4140625 12.02734375 C-0.60742188 11.02832031 -0.80078125 10.02929688 -1 9 C-3.64 12.63 -6.28 16.26 -9 20 C-9.33 19.34 -9.66 18.68 -10 18 C-8.671875 15.64453125 -8.671875 15.64453125 -6.75 12.8125 C-3.9882146 8.62296526 -1.76993187 4.68511378 0 0 Z " fill="#D7D0D2" transform="translate(71,2)"/>
<path d="M0 0 C4.96916636 0.51405169 9.29026351 1.23384882 14 3 C14.33 2.01 14.66 1.02 15 0 C16.32 0.33 17.64 0.66 19 1 C19.80231051 7.0975599 17.2102155 11.97216953 14 17 C10.68629 19.20914 9.6553979 19.22481553 5.8125 19.125 C4.91144531 19.10695313 4.01039063 19.08890625 3.08203125 19.0703125 C2.39496094 19.04710938 1.70789063 19.02390625 1 19 C0.67 18.01 0.34 17.02 0 16 C5.445 15.01 5.445 15.01 11 14 C11.33 12.68 11.66 11.36 12 10 C11.01 9.34 10.02 8.68 9 8 C9 7.01 9 6.02 9 5 C7.88625 4.9175 6.7725 4.835 5.625 4.75 C2 4 2 4 0.5625 1.9375 C0.376875 1.298125 0.19125 0.65875 0 0 Z " fill="#E9EBF6" transform="translate(187,57)"/>
<path d="M0 0 C2.29804979 0.56401222 4.58637927 1.14985288 6.875 1.75 C8.15117187 2.07484375 9.42734375 2.3996875 10.7421875 2.734375 C14 4 14 4 15.4453125 6.140625 C15.62835938 6.75421875 15.81140625 7.3678125 16 8 C14 11 14 11 10.1875 11.875 C7.19001716 12.14156381 5.99483969 11.99786857 3.125 10.8125 C0.88295488 8.90016739 -0.1705516 7.82012457 -1 5 C-0.70688927 3.32579124 -0.37739261 1.65724582 0 0 Z " fill="#010101" transform="translate(184,61)"/>
<path d="M0 0 C1.17369141 -0.02513672 1.17369141 -0.02513672 2.37109375 -0.05078125 C5.05300614 0.39381385 5.93997608 1.1682642 7.5625 3.3125 C7.5625 3.9725 7.5625 4.6325 7.5625 5.3125 C8.5525 5.3125 9.5425 5.3125 10.5625 5.3125 C10.5625 7.2925 10.5625 9.2725 10.5625 11.3125 C7.90951149 10.58270384 5.26701786 9.83018913 2.625 9.0625 C1.87025391 8.85753906 1.11550781 8.65257812 0.33789062 8.44140625 C-1.83984375 7.796875 -1.83984375 7.796875 -5.4375 6.3125 C-6.28735352 4.34472656 -6.28735352 4.34472656 -6.4375 2.3125 C-4.02263057 -0.10236943 -3.31042211 0.0163075 0 0 Z " fill="#010202" transform="translate(191.4375,49.6875)"/>
<path d="M0 0 C0.495 1.485 0.495 1.485 1 3 C2.31647119 3.69937532 3.65022151 4.36729133 5 5 C5.495 5.99 5.495 5.99 6 7 C3.525 6.505 3.525 6.505 1 6 C0.67 6.99 0.34 7.98 0 9 C0 8.34 0 7.68 0 7 C-2.01472331 8.85974459 -3.75631854 10.54416703 -5.05664062 12.9765625 C-6.49163708 15.49410014 -7.74342722 17.16234929 -10 19 C-14.654899 20.00345128 -19.14067182 19.75644278 -23.875 19.5 C-25.13570312 19.46390625 -26.39640625 19.4278125 -27.6953125 19.390625 C-30.79999216 19.2965438 -33.89842636 19.16521392 -37 19 C-36.67 18.34 -36.34 17.68 -36 17 C-27.42 17 -18.84 17 -10 17 C-9.34 15.35 -8.68 13.7 -8 12 C-6.5625 10.15625 -6.5625 10.15625 -5 8.5 C-2.59043001 5.81421101 -1.06232828 3.50568334 0 0 Z " fill="#C4C5CA" transform="translate(118,58)"/>
<path d="M0 0 C0.66 0 1.32 0 2 0 C2.33 3.63 2.66 7.26 3 11 C6.63 11 10.26 11 14 11 C13.67 11.99 13.34 12.98 13 14 C11.66535966 14.64615779 10.30733587 15.24475497 8.9375 15.8125 C6.64999311 16.96553387 6.64999311 16.96553387 5 19 C4.27431504 23.73039084 4.53721133 28.24998847 5 33 C3.68 32.34 2.36 31.68 1 31 C1.11455681 29.08268082 1.24206258 27.1661325 1.375 25.25 C1.44460937 24.18265625 1.51421875 23.1153125 1.5859375 22.015625 C1.9728223 19.19793568 2.55686166 17.4169634 4 15 C4.66 15 5.32 15 6 15 C6 14.34 6 13.68 6 13 C4.35 12.67 2.7 12.34 1 12 C0.67 8.04 0.34 4.08 0 0 Z " fill="#ACABA9" transform="translate(68,16)"/>
<path d="M0 0 C0.93779297 0.00322266 1.87558594 0.00644531 2.84179688 0.00976562 C4.30649414 0.02233398 4.30649414 0.02233398 5.80078125 0.03515625 C7.28288086 0.04192383 7.28288086 0.04192383 8.79492188 0.04882812 C11.23443599 0.06061322 13.67382814 0.07706614 16.11328125 0.09765625 C14.58674741 4.67725777 11.11951201 5.56578077 6.9921875 7.734375 C3.70362264 9.29164655 0.65595307 10.31039584 -2.88671875 11.09765625 C-0.12100343 8.12707313 2.61049521 6.12497354 6.11328125 4.09765625 C5.27023438 4.04867188 4.4271875 3.9996875 3.55859375 3.94921875 C1.91503906 3.83707031 1.91503906 3.83707031 0.23828125 3.72265625 C-0.85226563 3.65304688 -1.9428125 3.5834375 -3.06640625 3.51171875 C-5.88671875 3.09765625 -5.88671875 3.09765625 -7.88671875 1.09765625 C-4.94539984 0.11721661 -3.0617021 -0.01855577 0 0 Z " fill="#ACADAC" transform="translate(80.88671875,22.90234375)"/>
<path d="M0 0 C0.33 0 0.66 0 1 0 C1 1.65 1 3.3 1 5 C-6.26 5 -13.52 5 -21 5 C-21 9.62 -21 14.24 -21 19 C-24.12662982 14.83116024 -24.3796916 14.16945042 -24.25 9.3125 C-24.23453125 8.33925781 -24.2190625 7.36601563 -24.203125 6.36328125 C-24 4 -24 4 -23 3 C-21.29436222 2.84259395 -19.58272756 2.74906608 -17.87109375 2.68359375 C-16.83662109 2.64169922 -15.80214844 2.59980469 -14.73632812 2.55664062 C-13.1034082 2.49766602 -13.1034082 2.49766602 -11.4375 2.4375 C-9.7987793 2.37272461 -9.7987793 2.37272461 -8.12695312 2.30664062 C-5.41810436 2.20017932 -2.70916008 2.09816484 0 2 C0 1.34 0 0.68 0 0 Z " fill="#AEB1C1" transform="translate(105,52)"/>
<path d="M0 0 C3.1875 -0.0625 3.1875 -0.0625 7 1 C9.13056077 3.7950426 10.59235109 6.78900363 12 10 C10.68 11.65 9.36 13.3 8 15 C5.03 10.71 2.06 6.42 -1 2 C-0.67 1.34 -0.34 0.68 0 0 Z " fill="#CBD5F1" transform="translate(104,45)"/>
<path d="M0 0 C5.67276511 -0.29341888 8.99067246 -0.00559652 14 3 C13.34 4.65 12.68 6.3 12 8 C12.99 8.33 13.98 8.66 15 9 C14.01 9.33 13.02 9.66 12 10 C12 14.62 12 19.24 12 24 C11.01 24.33 10.02 24.66 9 25 C9.01160156 24.0821875 9.02320313 23.164375 9.03515625 22.21875 C9.08301493 15.70996973 9.02900697 9.43129355 8 3 C5.36 2.34 2.72 1.68 0 1 C0 0.67 0 0.34 0 0 Z " fill="#BDC1D3" transform="translate(145,44)"/>
<path d="M0 0 C0.33 0 0.66 0 1 0 C1.09765625 6.15234375 1.09765625 6.15234375 1 8 C0.67 8.33 0.34 8.66 0 9 C-0.23075082 10.34747084 -0.41153063 11.70377565 -0.5625 13.0625 C-0.706875 14.361875 -0.85125 15.66125 -1 17 C-6.93251449 19.35617597 -12.57384675 20.99360201 -19 20 C-19.99 19.34 -20.98 18.68 -22 18 C-21.67 16.68 -21.34 15.36 -21 14 C-19.35 14 -17.7 14 -16 14 C-16.99 14.33 -17.98 14.66 -19 15 C-18.67 15.66 -18.34 16.32 -18 17 C-16.39592672 17.02708567 -14.7917215 17.04643483 -13.1875 17.0625 C-11.84751953 17.07990234 -11.84751953 17.07990234 -10.48046875 17.09765625 C-7.86586209 17.11009967 -7.86586209 17.11009967 -5 16 C-4.27129528 13.68529088 -3.60760482 11.3494053 -3 9 C-2.34 8.01 -1.68 7.02 -1 6 C-0.60986284 4.0103005 -0.26797351 2.00980131 0 0 Z " fill="#A8A9B0" transform="translate(206,58)"/>
<path d="M0 0 C2.97 0.495 2.97 0.495 6 1 C6 2.98 6 4.96 6 7 C6.66 7.33 7.32 7.66 8 8 C8.33 8.99 8.66 9.98 9 11 C12.51190809 12.22969878 12.51190809 12.22969878 16 13 C16 13.66 16 14.32 16 15 C7.42857143 14 7.42857143 14 4 13 C3.01 14.485 3.01 14.485 2 16 C1.93941406 15.09636719 1.87882813 14.19273438 1.81640625 13.26171875 C1.73261719 12.08222656 1.64882812 10.90273438 1.5625 9.6875 C1.48128906 8.51574219 1.40007812 7.34398437 1.31640625 6.13671875 C1.1132629 2.97409042 1.1132629 2.97409042 0 0 Z " fill="#ACB1C4" transform="translate(180,49)"/>
<path d="M0 0 C0.33 0 0.66 0 1 0 C1 6.27 1 12.54 1 19 C-4.64285714 13.35714286 -4.64285714 13.35714286 -6 11 C-6 6.10051565 -3.1782372 3.41660499 0 0 Z " fill="#040405" transform="translate(127,51)"/>
<path d="M0 0 C0.66 0.33 1.32 0.66 2 1 C1.01 2.485 1.01 2.485 0 4 C-0.1842131 6.42434057 -0.1842131 6.42434057 0.0234375 9.10546875 C0.075 10.08837891 0.1265625 11.07128906 0.1796875 12.08398438 C0.24414062 13.10814453 0.30859375 14.13230469 0.375 15.1875 C0.43171875 16.22326172 0.4884375 17.25902344 0.546875 18.32617188 C0.68836666 20.88481271 0.83977866 23.44247484 1 26 C-0.26118382 25.06092525 -1.52141264 24.12056785 -2.78125 23.1796875 C-3.48314453 22.65616699 -4.18503906 22.13264648 -4.90820312 21.59326172 C-7.68249626 19.48016216 -10.34309004 17.25837346 -13 15 C-12.67 14.34 -12.34 13.68 -12 13 C-8.37 15.31 -4.74 17.62 -1 20 C-1.165 18.88625 -1.33 17.7725 -1.5 16.625 C-2.09440124 11.80087396 -2.53125516 6.84432667 -2 2 C-1.34 1.34 -0.68 0.68 0 0 Z " fill="#ACACAC" transform="translate(76,34)"/>
<path d="M0 0 C4.10334471 0.93257834 5.71602146 1.64129026 8.375 5 C10 8 10 8 10 10 C9.34 10 8.68 10 8 10 C8 10.66 8 11.32 8 12 C6.25 11.9375 6.25 11.9375 4 11 C1.13940656 7.32761653 0 4.70446134 0 0 Z " fill="#E1E2EB" transform="translate(119,64)"/>
<path d="M0 0 C2.27487392 0.00714246 4.47922931 0.12215266 6.73828125 0.3828125 C6.73828125 1.3728125 6.73828125 2.3628125 6.73828125 3.3828125 C3.76828125 2.8878125 3.76828125 2.8878125 0.73828125 2.3828125 C0.49078125 2.8984375 0.24328125 3.4140625 -0.01171875 3.9453125 C-1.65753491 7.15465401 -3.45932835 10.25866914 -5.26171875 13.3828125 C-6.25171875 13.3828125 -7.24171875 13.3828125 -8.26171875 13.3828125 C-8.26171875 12.7228125 -8.26171875 12.0628125 -8.26171875 11.3828125 C-8.92171875 11.0528125 -9.58171875 10.7228125 -10.26171875 10.3828125 C-9.60171875 10.3828125 -8.94171875 10.3828125 -8.26171875 10.3828125 C-8.01421875 9.8465625 -7.76671875 9.3103125 -7.51171875 8.7578125 C-7.09921875 7.9740625 -6.68671875 7.1903125 -6.26171875 6.3828125 C-5.48828125 4.7740625 -5.48828125 4.7740625 -4.69921875 3.1328125 C-2.26171875 0.3828125 -2.26171875 0.3828125 0 0 Z " fill="#E3E7F8" transform="translate(126.26171875,44.6171875)"/>
<path d="M0 0 C0.66 0 1.32 0 2 0 C2.33 3.63 2.66 7.26 3 11 C4.32 11.33 5.64 11.66 7 12 C7 12.66 7 13.32 7 14 C6.01 14.495 6.01 14.495 5 15 C4.30906104 17.57951874 4.30906104 17.57951874 3.875 20.5625 C3.70742187 21.57441406 3.53984375 22.58632813 3.3671875 23.62890625 C3.24601562 24.41136719 3.12484375 25.19382812 3 26 C0.54293443 23.82818742 0.03684919 23.36112209 -0.3125 19.9375 C0 17 0 17 2 15 C1.34 14.34 0.68 13.68 0 13 C-0.1953125 9.9609375 -0.1953125 9.9609375 -0.125 6.375 C-0.10695313 5.18648437 -0.08890625 3.99796875 -0.0703125 2.7734375 C-0.04710938 1.85820312 -0.02390625 0.94296875 0 0 Z " fill="#E8E7E6" transform="translate(67,17)"/>
<path d="M0 0 C2.31 0 4.62 0 7 0 C7.33 0.66 7.66 1.32 8 2 C7.67 2.66 7.34 3.32 7 4 C9.97 4.33 12.94 4.66 16 5 C16 5.33 16 5.66 16 6 C14.4221875 6.0309375 14.4221875 6.0309375 12.8125 6.0625 C8.1753213 7.20278985 7.32255951 8.59168186 4.9453125 12.50390625 C4.63335937 12.99761719 4.32140625 13.49132813 4 14 C3.67 14 3.34 14 3 14 C2.95745644 12.00045254 2.95919217 9.99958364 3 8 C3.33 7.67 3.66 7.34 4 7 C2.02 6.34 0.04 5.68 -2 5 C-2 4.34 -2 3.68 -2 3 C0.97 3.495 0.97 3.495 4 4 C4 3.01 4 2.02 4 1 C2.68 0.67 1.36 0.34 0 0 Z " fill="#797F92" transform="translate(129,44)"/>
<path d="M0 0 C0 0.66 0 1.32 0 2 C-2.82411765 2.94137255 -4.52918032 3.11725382 -7.44921875 3.09765625 C-8.29677734 3.09443359 -9.14433594 3.09121094 -10.01757812 3.08789062 C-10.89865234 3.07951172 -11.77972656 3.07113281 -12.6875 3.0625 C-13.58017578 3.05798828 -14.47285156 3.05347656 -15.39257812 3.04882812 C-17.59511987 3.03704983 -19.79752599 3.02060164 -22 3 C-22 2.34 -22 1.68 -22 1 C-18.59146821 -0.70426589 -14.76260709 -0.42696805 -11 -0.625 C-10.16726562 -0.6765625 -9.33453125 -0.728125 -8.4765625 -0.78125 C-7.67992188 -0.82507813 -6.88328125 -0.86890625 -6.0625 -0.9140625 C-4.96615234 -0.9752124 -4.96615234 -0.9752124 -3.84765625 -1.03759766 C-2 -1 -2 -1 0 0 Z " fill="#F6F7FC" transform="translate(107,72)"/>
<path d="M0 0 C0.66 0 1.32 0 2 0 C2.36590746 1.72672034 2.71722195 3.45653655 3.0625 5.1875 C3.25972656 6.15042969 3.45695313 7.11335938 3.66015625 8.10546875 C4.00423947 11.03610862 3.74164697 13.16307068 3 16 C1 14.6875 1 14.6875 -1 12 C-1.41423068 8.30958124 -1.37244965 4.6939678 -1 1 C-0.67 0.67 -0.34 0.34 0 0 Z " fill="#D9DFF4" transform="translate(129,57)"/>
<path d="M0 0 C1.32 0.33 2.64 0.66 4 1 C3.67 1.66 3.34 2.32 3 3 C2.84932786 4.4465242 2.75138964 5.8987934 2.68359375 7.3515625 C2.64169922 8.20234375 2.59980469 9.053125 2.55664062 9.9296875 C2.51732422 10.81914063 2.47800781 11.70859375 2.4375 12.625 C2.39431641 13.5221875 2.35113281 14.419375 2.30664062 15.34375 C2.20043139 17.56234283 2.09838806 19.7810488 2 22 C0.35 22.33 -1.3 22.66 -3 23 C-2.69217504 21.35328588 -2.37860766 19.70764424 -2.0625 18.0625 C-1.88847656 17.14597656 -1.71445313 16.22945312 -1.53515625 15.28515625 C-1 13 -1 13 0 12 C0.07244053 9.98035801 0.08377188 7.95832876 0.0625 5.9375 C0.04896484 4.28041016 0.04896484 4.28041016 0.03515625 2.58984375 C0.02355469 1.73519531 0.01195312 0.88054688 0 0 Z " fill="#6D707C" transform="translate(206,54)"/>
<path d="M0 0 C8.25 0.33 16.5 0.66 25 1 C25 1.33 25 1.66 25 2 C17.41 2 9.82 2 2 2 C2 5.96 2 9.92 2 14 C1.67 14 1.34 14 1 14 C-0.27138808 9.07337118 0 5.46314577 0 0 Z " fill="#6B7389" transform="translate(82,37)"/>
<path d="M0 0 C5.94 0 11.88 0 18 0 C18 0.66 18 1.32 18 2 C14.38132441 3.2062252 11.07493749 3.10816918 7.3125 3.0625 C6.61060547 3.05798828 5.90871094 3.05347656 5.18554688 3.04882812 C3.45699462 3.03706927 1.72848635 3.01913454 0 3 C0 2.01 0 1.02 0 0 Z " fill="#EAEDFD" transform="translate(87,52)"/>
<path d="M0 0 C1.9375 0.6875 1.9375 0.6875 4 2 C4.75 4.625 4.75 4.625 5 7 C5.763125 7.103125 6.52625 7.20625 7.3125 7.3125 C10.23942162 8.06124739 11.31505916 8.51692929 13 11 C13.1875 13.6875 13.1875 13.6875 13 16 C7.125 12.25 7.125 12.25 6 10 C5.01 9.34 4.02 8.68 3 8 C2.61781233 6.34385343 2.28604898 4.67542976 2 3 C1.34 2.01 0.68 1.02 0 0 Z " fill="#9D9B99" transform="translate(56,30)"/>
<path d="M0 0 C0.33 1.32 0.66 2.64 1 4 C-1.66673742 4.02727345 -4.33318869 4.04696948 -7 4.0625 C-8.11568359 4.07506836 -8.11568359 4.07506836 -9.25390625 4.08789062 C-14.26148844 4.10966272 -19.04279032 3.71541549 -24 3 C-24 2.67 -24 2.34 -24 2 C-23.30849854 1.97494385 -22.61699707 1.9498877 -21.90454102 1.92407227 C-18.79032134 1.80847839 -15.67643211 1.68558758 -12.5625 1.5625 C-10.92958008 1.50352539 -10.92958008 1.50352539 -9.26367188 1.44335938 C-8.22919922 1.40146484 -7.19472656 1.35957031 -6.12890625 1.31640625 C-5.17056885 1.27974854 -4.21223145 1.24309082 -3.22485352 1.20532227 C-1.02861075 1.24165576 -1.02861075 1.24165576 0 0 Z " fill="#B1BAD9" transform="translate(107,34)"/>
<path d="M0 0 C0.75 1.6875 0.75 1.6875 1 4 C-1.40891605 7.89132593 -3.55404842 9.88851211 -8 11 C-10.7602805 11.2499676 -13.20598239 11.18321427 -16 11 C-16.66 10.34 -17.32 9.68 -18 9 C-17.10796875 8.90203125 -16.2159375 8.8040625 -15.296875 8.703125 C-14.12640625 8.55359375 -12.9559375 8.4040625 -11.75 8.25 C-10.00976562 8.04117188 -10.00976562 8.04117188 -8.234375 7.828125 C-4.60295501 6.89834114 -3.27658349 5.92703592 -1 3 C-0.67 2.01 -0.34 1.02 0 0 Z " fill="#B1B2B8" transform="translate(180,67)"/>
<path d="M0 0 C1.85776765 3.13498292 2.20140476 5.37471432 2 9 C1.34 8.01 0.68 7.02 0 6 C-2.64 9.63 -5.28 13.26 -8 17 C-8.33 16.34 -8.66 15.68 -9 15 C-7.63671875 12.5390625 -7.63671875 12.5390625 -5.6875 9.625 C-3.59715887 6.4788882 -1.59931251 3.42593847 0 0 Z " fill="#B5B4B6" transform="translate(70,5)"/>
<path d="M0 0 C1.32 0.33 2.64 0.66 4 1 C4.38281159 6.23175837 3.21854707 9.37802694 1 14 C0.67 14 0.34 14 0 14 C0 9.38 0 4.76 0 0 Z " fill="#D5D8E6" transform="translate(202,57)"/>
<path d="M0 0 C0 0.99 0 1.98 0 3 C-3.61973402 4.31626692 -6.09567131 5 -10 5 C-8.94958421 2.13522966 -8.29875437 1.16086774 -5.5625 -0.3125 C-3 -1 -3 -1 0 0 Z " fill="#D5DDF7" transform="translate(219,45)"/>
<path d="M0 0 C0.33 1.32 0.66 2.64 1 4 C-3.90082164 7.20053658 -6.95775707 8.71085211 -13 8 C-13.66 7.34 -14.32 6.68 -15 6 C-14.33613281 5.98582031 -13.67226562 5.97164063 -12.98828125 5.95703125 C-6.82744805 5.72950819 -6.82744805 5.72950819 -1.875 2.4375 C-0.946875 1.2309375 -0.946875 1.2309375 0 0 Z " fill="#A3A4AD" transform="translate(153,70)"/>
<path d="M0 0 C0.33 1.32 0.66 2.64 1 4 C0.34 3.67 -0.32 3.34 -1 3 C-2.49649362 2.87994547 -3.99874793 2.82468549 -5.5 2.8125 C-6.2940625 2.79832031 -7.088125 2.78414062 -7.90625 2.76953125 C-10.22033317 2.80333697 -10.22033317 2.80333697 -12 5 C-12.99 5 -13.98 5 -15 5 C-14 2 -14 2 -12 0.8125 C-7.96195446 -0.28113733 -4.15684292 -0.16301345 0 0 Z " fill="#CAD3F0" transform="translate(172,47)"/>
<path d="M0 0 C0.66 0 1.32 0 2 0 C2.33 3.63 2.66 7.26 3 11 C4.32 11.33 5.64 11.66 7 12 C7 12.66 7 13.32 7 14 C4.69 13.67 2.38 13.34 0 13 C0 8.71 0 4.42 0 0 Z " fill="#F0F0F0" transform="translate(67,17)"/>
<path d="M0 0 C0 0.33 0 0.66 0 1 C-1.60875 1.0928125 -1.60875 1.0928125 -3.25 1.1875 C-7.68634559 2.14870821 -8.4916469 3.3768233 -11 7 C-11.66 7 -12.32 7 -13 7 C-13 9.64 -13 12.28 -13 15 C-13.33 15 -13.66 15 -14 15 C-14.76585232 6.23524568 -14.76585232 6.23524568 -12.0625 1.875 C-7.94613247 -0.64522502 -4.70278047 -0.46105691 0 0 Z " fill="#8C93A9" transform="translate(171,49)"/>
<path d="M0 0 C-0.33 0.99 -0.66 1.98 -1 3 C-4.63 2.67 -8.26 2.34 -12 2 C-12 2.66 -12 3.32 -12 4 C-12.66 4 -13.32 4 -14 4 C-13.67 3.01 -13.34 2.02 -13 1 C-8.36166107 -1.20873282 -4.97047962 -0.99409592 0 0 Z " fill="#E5EBFD" transform="translate(196,45)"/>
<path d="M0 0 C5.67276511 -0.29341888 8.99067246 -0.00559652 14 3 C12.68 4.32 11.36 5.64 10 7 C9.46375 6.38125 8.9275 5.7625 8.375 5.125 C5.68896977 2.7217098 3.44585438 1.93977847 0 1 C0 0.67 0 0.34 0 0 Z " fill="#000000" transform="translate(145,44)"/>
<path d="M0 0 C0 0.66 0 1.32 0 2 C-0.68707031 2.13277344 -1.37414062 2.26554687 -2.08203125 2.40234375 C-3.43361328 2.66724609 -3.43361328 2.66724609 -4.8125 2.9375 C-6.15248047 3.19853516 -6.15248047 3.19853516 -7.51953125 3.46484375 C-10.11397171 3.97741153 -10.11397171 3.97741153 -13 5 C-12.375 3.125 -12.375 3.125 -11 1 C-6.96362635 -0.88364104 -4.27242501 -1.25659559 0 0 Z " fill="#E8EDFE" transform="translate(171,45)"/>
<path d="M0 0 C0.33 0.99 0.66 1.98 1 3 C2.31647119 3.69937532 3.65022151 4.36729133 5 5 C5.33 5.66 5.66 6.32 6 7 C4.35 6.67 2.7 6.34 1 6 C0.67 6.99 0.34 7.98 0 9 C0 8.34 0 7.68 0 7 C-0.99 6.67 -1.98 6.34 -3 6 C-2.01 4.02 -1.02 2.04 0 0 Z " fill="#C0C3D2" transform="translate(118,58)"/>
<path d="M0 0 C0.66 0.33 1.32 0.66 2 1 C2.31241371 3.54941373 2.51303421 6.00361513 2.625 8.5625 C2.66367188 9.27341797 2.70234375 9.98433594 2.7421875 10.71679688 C2.83671783 12.47742425 2.91945817 14.23867728 3 16 C2.34 15.67 1.68 15.34 1 15 C0.5859375 12.93359375 0.5859375 12.93359375 0.375 10.4375 C0.30023438 9.61121094 0.22546875 8.78492188 0.1484375 7.93359375 C0.07496094 6.97646484 0.07496094 6.97646484 0 6 C-0.99 6.33 -1.98 6.66 -3 7 C-1.125 2.25 -1.125 2.25 0 0 Z " fill="#A8B1CB" transform="translate(131,51)"/>
<path d="M0 0 C2.64 0 5.28 0 8 0 C6.33784732 1.33895632 4.67036393 2.67130142 3 4 C1.9171875 4.86625 1.9171875 4.86625 0.8125 5.75 C-1 7 -1 7 -3 7 C-1.125 2.25 -1.125 2.25 0 0 Z " fill="#9F9FAD" transform="translate(54,42)"/>
<path d="M0 0 C2.97 0.495 2.97 0.495 6 1 C5.01 1.495 5.01 1.495 4 2 C4.02320313 2.75925781 4.04640625 3.51851562 4.0703125 4.30078125 C4.08835938 5.29464844 4.10640625 6.28851563 4.125 7.3125 C4.14820313 8.29863281 4.17140625 9.28476562 4.1953125 10.30078125 C4 13 4 13 2 16 C1.93941406 15.09636719 1.87882813 14.19273438 1.81640625 13.26171875 C1.73261719 12.08222656 1.64882812 10.90273438 1.5625 9.6875 C1.48128906 8.51574219 1.40007812 7.34398437 1.31640625 6.13671875 C1.1132629 2.97409042 1.1132629 2.97409042 0 0 Z " fill="#B7BCCD" transform="translate(180,49)"/>
<path d="M0 0 C-3 2 -3 2 -7 2 C-7.33 3.32 -7.66 4.64 -8 6 C-8.99 5.67 -9.98 5.34 -11 5 C-11 4.34 -11 3.68 -11 3 C-11.99 2.67 -12.98 2.34 -14 2 C-12.23225581 1.46877637 -10.46065917 0.95035927 -8.6875 0.4375 C-7.70136719 0.14746094 -6.71523437 -0.14257812 -5.69921875 -0.44140625 C-3 -1 -3 -1 0 0 Z " fill="#9499AB" transform="translate(213,52)"/>
<path d="M0 0 C0.99773437 0.02320313 1.99546875 0.04640625 3.0234375 0.0703125 C4.52777344 0.09738281 4.52777344 0.09738281 6.0625 0.125 C6.83335937 0.14820313 7.60421875 0.17140625 8.3984375 0.1953125 C8.7284375 1.5153125 9.0584375 2.8353125 9.3984375 4.1953125 C8.4084375 3.8653125 7.4184375 3.5353125 6.3984375 3.1953125 C4.50631013 2.97351465 2.60959278 2.78917235 0.7109375 2.6328125 C-0.28292969 2.54902344 -1.27679688 2.46523438 -2.30078125 2.37890625 C-3.43966797 2.28802734 -3.43966797 2.28802734 -4.6015625 2.1953125 C-2.6015625 0.1953125 -2.6015625 0.1953125 0 0 Z " fill="#C1CDEF" transform="translate(138.6015625,46.8046875)"/>
<path d="M0 0 C9.41002278 -0.3690205 9.41002278 -0.3690205 14 2 C13.01 3.485 13.01 3.485 12 5 C11.505 4.71125 11.01 4.4225 10.5 4.125 C7.08247965 2.58711584 3.6493798 1.85152195 0 1 C0 0.67 0 0.34 0 0 Z " fill="#000000" transform="translate(169,44)"/>
<path d="M0 0 C0.99 0.33 1.98 0.66 3 1 C3 3.64 3 6.28 3 9 C2.01 9 1.02 9 0 9 C0 6.03 0 3.06 0 0 Z " fill="#E4E6F1" transform="translate(128,80)"/>
<path d="M0 0 C0.33 0 0.66 0 1 0 C1.33 4.29 1.66 8.58 2 13 C0.68 12.34 -0.64 11.68 -2 11 C-1.40049704 7.31733897 -0.75241109 3.65456815 0 0 Z " fill="#C4C0BF" transform="translate(71,36)"/>
<path d="M0 0 C1.2065625 0.0309375 1.2065625 0.0309375 2.4375 0.0625 C1.4475 0.3925 0.4575 0.7225 -0.5625 1.0625 C-0.2325 1.7225 0.0975 2.3825 0.4375 3.0625 C2.75906597 3.46979228 5.0943787 3.80688677 7.4375 4.0625 C7.4375 4.3925 7.4375 4.7225 7.4375 5.0625 C4.1375 5.0625 0.8375 5.0625 -2.5625 5.0625 C-2.8925 3.7425 -3.2225 2.4225 -3.5625 1.0625 C-2.5625 0.0625 -2.5625 0.0625 0 0 Z " fill="#C3C5CF" transform="translate(187.5625,71.9375)"/>
<path d="M0 0 C3 1 3 1 4.1875 2.75 C5.10819096 5.29960574 5.14948718 7.30923081 5 10 C4.34 9.67 3.68 9.34 3 9 C3 8.34 3 7.68 3 7 C2.01 6.67 1.02 6.34 0 6 C0 4.02 0 2.04 0 0 Z " fill="#BFC4D7" transform="translate(132,66)"/>
<path d="M0 0 C0.66 0.33 1.32 0.66 2 1 C-0.31 4.3 -2.62 7.6 -5 11 C-5.33 10.01 -5.66 9.02 -6 8 C-4.78515625 5.95703125 -4.78515625 5.95703125 -3.0625 3.8125 C-2.49660156 3.09707031 -1.93070312 2.38164063 -1.34765625 1.64453125 C-0.90292969 1.10183594 -0.45820312 0.55914062 0 0 Z " fill="#A7AAB7" transform="translate(114,65)"/>
<path d="M0 0 C1.9375 0.6875 1.9375 0.6875 4 2 C4.75 4.625 4.75 4.625 5 7 C6.65 7.33 8.3 7.66 10 8 C8.02 8.99 8.02 8.99 6 10 C3 8 3 8 2.4375 5.5625 C2.293125 4.716875 2.14875 3.87125 2 3 C1.34 2.01 0.68 1.02 0 0 Z " fill="#8C8B89" transform="translate(56,30)"/>
<path d="M0 0 C0.33 0 0.66 0 1 0 C1 3.63 1 7.26 1 11 C-0.32 10.67 -1.64 10.34 -3 10 C-2.67 9.67 -2.34 9.34 -2 9 C-1.79395915 7.67218122 -1.6337041 6.33704105 -1.5 5 C-1.11111111 1.11111111 -1.11111111 1.11111111 0 0 Z " fill="#818288" transform="translate(206,66)"/>
<path d="M0 0 C0.66 0.33 1.32 0.66 2 1 C2.33 1.99 2.66 2.98 3 4 C3.99 4.66 4.98 5.32 6 6 C5.34 6 4.68 6 4 6 C4 6.66 4 7.32 4 8 C2.02 8.66 0.04 9.32 -2 10 C-1.34 9.01 -0.68 8.02 0 7 C0.07905064 4.66800612 0.08798769 2.33167378 0 0 Z " fill="#DADCE8" transform="translate(81,67)"/>
<path d="M0 0 C0.66 0.33 1.32 0.66 2 1 C-1.49087093 5.0042343 -3.64951939 6.62671065 -9 7 C-6.25604436 4.05278838 -3.61662784 1.80831392 0 0 Z " fill="#9A9A9B" transform="translate(87,27)"/>
<path d="M0 0 C0.66 0 1.32 0 2 0 C2.33 3.63 2.66 7.26 3 11 C4.98 11 6.96 11 9 11 C9 11.33 9 11.66 9 12 C6.6739143 12.38063221 4.33944736 12.71269945 2 13 C0.18884044 11.18884044 0.61800552 8.38721773 0.4375 5.9375 C0.35371094 4.83277344 0.26992187 3.72804688 0.18359375 2.58984375 C0.09271484 1.30787109 0.09271484 1.30787109 0 0 Z " fill="#CDC8C5" transform="translate(68,16)"/>
<path d="M0 0 C5.94 0.99 5.94 0.99 12 2 C12 2.33 12 2.66 12 3 C7.28400182 3.92470553 4.32734391 4.22923777 0 2 C0 1.34 0 0.68 0 0 Z " fill="#D3D2DB" transform="translate(49,27)"/>
<path d="M0 0 C0.99 0.33 1.98 0.66 3 1 C3 5.62 3 10.24 3 15 C2.67 15 2.34 15 2 15 C1.93941406 14.33613281 1.87882813 13.67226562 1.81640625 12.98828125 C1.20136493 6.45091919 1.20136493 6.45091919 0 0 Z " fill="#D6D8E7" transform="translate(179,51)"/>
<path d="M0 0 C1.08667969 0.19464844 2.17335938 0.38929687 3.29296875 0.58984375 C4.54013672 0.82380859 4.54013672 0.82380859 5.8125 1.0625 C5.8125 1.3925 5.8125 1.7225 5.8125 2.0625 C3.68777424 2.11636629 1.56266348 2.15523071 -0.5625 2.1875 C-2.33753906 2.22230469 -2.33753906 2.22230469 -4.1484375 2.2578125 C-7.1875 2.0625 -7.1875 2.0625 -9.1875 0.0625 C-5.61369658 -1.12876781 -3.67866698 -0.6724445 0 0 Z " fill="#B8B5B3" transform="translate(82.1875,23.9375)"/>
<path d="M0 0 C2.475 0.495 2.475 0.495 5 1 C4.01 1.33 3.02 1.66 2 2 C2 2.66 2 3.32 2 4 C5.3 4 8.6 4 12 4 C12 4.33 12 4.66 12 5 C8.37 5 4.74 5 1 5 C0.67 3.35 0.34 1.7 0 0 Z " fill="#D9DCEA" transform="translate(136,71)"/>
<path d="M0 0 C0.66 0.33 1.32 0.66 2 1 C1.96744792 3.01822917 1.93489583 5.03645833 1.90234375 7.0546875 C1.87350758 9.08185404 1.87350758 9.08185404 3 11 C2.01 10.67 1.02 10.34 0 10 C-1.125 3.375 -1.125 3.375 0 0 Z " fill="#868CA2" transform="translate(184,51)"/>
<path d="M0 0 C0.99 0.33 1.98 0.66 3 1 C2.34 1 1.68 1 1 1 C1 2.98 1 4.96 1 7 C-0.65 5.68 -2.3 4.36 -4 3 C-3.01 3 -2.02 3 -1 3 C-0.67 2.01 -0.34 1.02 0 0 Z " fill="#8B8D97" transform="translate(132,74)"/>
<path d="M0 0 C0 0.99 0 1.98 0 3 C-1.65 3.66 -3.3 4.32 -5 5 C-5.33 3.68 -5.66 2.36 -6 1 C-4.02 0.67 -2.04 0.34 0 0 Z " fill="#B5B5B2" transform="translate(96,23)"/>
<path d="M0 0 C1.85776765 3.13498292 2.20140476 5.37471432 2 9 C1.34 8.01 0.68 7.02 0 6 C-0.99 6.33 -1.98 6.66 -3 7 C-2.690625 6.401875 -2.38125 5.80375 -2.0625 5.1875 C-0.89790296 2.91043228 -0.89790296 2.91043228 0 0 Z " fill="#BCBBC0" transform="translate(70,5)"/>
<path d="M0 0 C6.875 3.75 6.875 3.75 8 6 C4.65750371 5.40312566 2.53563658 4.26396123 0 2 C0 1.34 0 0.68 0 0 Z " fill="#C6C7C1" transform="translate(63,47)"/>
<path d="M0 0 C-0.33 0.99 -0.66 1.98 -1 3 C-1.99 3.33 -2.98 3.66 -4 4 C-4 3.34 -4 2.68 -4 2 C-6.31 2 -8.62 2 -11 2 C-11 1.67 -11 1.34 -11 1 C-9.54182203 0.83197949 -8.0834516 0.66562857 -6.625 0.5 C-5.81289062 0.4071875 -5.00078125 0.314375 -4.1640625 0.21875 C-2 0 -2 0 0 0 Z " fill="#A0A09D" transform="translate(82,27)"/>
</svg>
