<?xml version="1.0" encoding="UTF-8"?>
<svg version="1.1" xmlns="http://www.w3.org/2000/svg" width="300" height="100">
<path d="M0 0 C0.66 0 1.32 0 2 0 C2.34123581 1.99866686 2.6725678 3.99902542 3 6 C3.185625 7.11375 3.37125 8.2275 3.5625 9.375 C4 13 4 13 4 21 C11.26 21 18.52 21 26 21 C24.76736651 24.69790046 23.79947549 24.9354846 20.4375 26.6875 C19.61121094 27.12449219 18.78492187 27.56148437 17.93359375 28.01171875 C17.29550781 28.33785156 16.65742187 28.66398437 16 29 C16.6705542 29.01458252 17.3411084 29.02916504 18.03198242 29.04418945 C21.08438822 29.118883 24.13572585 29.21547299 27.1875 29.3125 C28.77014648 29.34633789 28.77014648 29.34633789 30.38476562 29.38085938 C31.40634766 29.41630859 32.42792969 29.45175781 33.48046875 29.48828125 C34.88655396 29.52755737 34.88655396 29.52755737 36.32104492 29.56762695 C39.51734442 30.0834974 41.43208879 31.03980792 44 33 C44.97333827 36.89335307 45.27382218 39.17853346 44 43 C45.65 44.65 47.3 46.3 49 48 C49.556875 47.195625 50.11375 46.39125 50.6875 45.5625 C53.80280838 42.11040153 56.18659434 42.0973015 60.70727539 41.85473633 C63.82579199 41.83023915 66.94388013 41.81435301 70.0625 41.8125 C71.15111328 41.80025391 72.23972656 41.78800781 73.36132812 41.77539062 C74.93237305 41.77249023 74.93237305 41.77249023 76.53515625 41.76953125 C77.96420288 41.76336792 77.96420288 41.76336792 79.42211914 41.75708008 C82.10170161 42.00958359 83.66548542 42.72689046 86 44 C87.98317421 43.80866962 87.98317421 43.80866962 90 43.125 C96.86341129 41.36950701 104.02006896 41.42414215 111 42.5625 C113.9703417 42.99567483 115.18899383 42.71646695 118 42 C119.5397044 41.91052156 121.08269939 41.8693854 122.625 41.8671875 C123.49640625 41.86589844 124.3678125 41.86460938 125.265625 41.86328125 C126.16796875 41.86714844 127.0703125 41.87101562 128 41.875 C128.90234375 41.87113281 129.8046875 41.86726563 130.734375 41.86328125 C132.04148438 41.86521484 132.04148438 41.86521484 133.375 41.8671875 C134.16648438 41.86831543 134.95796875 41.86944336 135.7734375 41.87060547 C138 42 138 42 140.1015625 42.57080078 C142.20632739 43.21880322 142.20632739 43.21880322 145 42 C151.16 41.44 151.16 41.44 154.4375 43.625 C156.45932313 46.69817115 156.52755517 48.38247881 156 52 C154.9375 54.25 154.9375 54.25 153 56 C150.67974374 56.71084442 148.3465568 57.38148561 146 58 C145.99589111 58.57967529 145.99178223 59.15935059 145.98754883 59.7565918 C145.95450723 62.40124109 145.88385736 65.04361839 145.8125 67.6875 C145.80379883 69.05551758 145.80379883 69.05551758 145.79492188 70.45117188 C145.6462192 74.99486487 145.48151782 77.34020396 142.7421875 81.09375 C139.96530024 83.02412177 138.63416916 83.66426022 135.3125 83.8125 C134.44882813 83.85632813 133.58515625 83.90015625 132.6953125 83.9453125 C131.80585938 83.96335937 130.91640625 83.98140625 130 84 C129.11054688 84.03867188 128.22109375 84.07734375 127.3046875 84.1171875 C122.57261858 84.24431771 119.39002186 83.82917577 115 82 C112.25201283 82.28040685 109.76682597 82.76995221 107.125 83.5625 C102.15645597 84.58543554 97.87491356 84.61909076 93.3125 82.4375 C89.72182554 80.87928278 88.61137713 80.76452888 85 82 C84.2575 82.350625 83.515 82.70125 82.75 83.0625 C78.83295819 84.39785516 75.10015744 84.16079049 71 84 C70.89042969 84.62648438 70.78085938 85.25296875 70.66796875 85.8984375 C70.50941406 86.71570313 70.35085937 87.53296875 70.1875 88.375 C69.96126953 89.59316406 69.96126953 89.59316406 69.73046875 90.8359375 C69 93 69 93 66 95 C62.52075524 95.44415891 60.69082245 95.42943017 57.6875 93.5625 C55.57928799 90.36114103 55.64963067 88.01221193 55.4140625 84.26171875 C54.72708743 80.50927946 52.65088495 78.65088495 50 76 C49.236875 76.78375 48.47375 77.5675 47.6875 78.375 C41.75673595 84.1678393 36.123864 83.37230996 28.3215332 83.37060547 C26.0736107 83.37497839 23.82765321 83.41130369 21.58007812 83.44921875 C20.1484442 83.45508737 18.71680097 83.45905646 17.28515625 83.4609375 C15.33428101 83.47326416 15.33428101 83.47326416 13.34399414 83.48583984 C10 83 10 83 7.56298828 81.26513672 C5.74845021 78.63544533 5.56513822 77.45187125 5.70703125 74.296875 C5.72145264 73.40210449 5.73587402 72.50733398 5.75073242 71.58544922 C5.77111572 70.64975098 5.79149902 69.71405273 5.8125 68.75 C5.82449685 61.48956029 5.82449685 61.48956029 3.0859375 54.9453125 C0.80760183 52.97867096 -1.38069199 51.47033424 -4 50 C-5.34451788 49.01508912 -6.68165623 48.01968008 -8 47 C-7.67 46.34 -7.34 45.68 -7 45 C-3.37 47.31 0.26 49.62 4 52 C3.835 50.88625 3.67 49.7725 3.5 48.625 C3.38205078 47.53251953 3.38205078 47.53251953 3.26171875 46.41796875 C3.0832171 44.7688266 2.85431942 43.12455501 2.58203125 41.48828125 C2.28649194 38.69136571 2.22345099 36.71350934 3 34 C5.98653141 31.01895854 9.32645051 29.03636129 13 27 C13.99 26.34 14.98 25.68 16 25 C14.73542969 24.90912109 14.73542969 24.90912109 13.4453125 24.81640625 C11.80175781 24.69072266 11.80175781 24.69072266 10.125 24.5625 C9.03445312 24.48128906 7.94390625 24.40007813 6.8203125 24.31640625 C4 24 4 24 2 23 C1.37147066 20.66752185 0.84464754 18.30708533 0.375 15.9375 C-0.01558594 14.00197266 -0.01558594 14.00197266 -0.4140625 12.02734375 C-0.60742188 11.02832031 -0.80078125 10.02929688 -1 9 C-3.64 12.63 -6.28 16.26 -9 20 C-9.33 19.34 -9.66 18.68 -10 18 C-8.671875 15.64453125 -8.671875 15.64453125 -6.75 12.8125 C-3.9882146 8.62296526 -1.76993187 4.68511378 0 0 Z M21 45 C21 46.32 21 47.64 21 49 C24.63 49 28.26 49 32 49 C32.33 47.68 32.66 46.36 33 45 C29.04 45 25.08 45 21 45 Z M71.125 58.125 C69.75115632 61.63593385 69.90931394 63.41631723 71 67 C72.43691955 68.85801239 72.43691955 68.85801239 74 70 C76.46800047 68.84826645 78.04783565 67.95216435 80 66 C80.31537716 61.66356399 80.44897847 59.67346771 78 56 C74.52675621 55.28753974 73.50216659 55.43087786 71.125 58.125 Z M97.25 57.625 C95.62763131 60.70750051 95.49818235 62.55896468 96 66 C97.87501931 68.37719693 97.87501931 68.37719693 100 70 C103.16115776 68.63016497 103.9927092 68.0109362 106 65 C105.76787034 59.95998592 105.76787034 59.95998592 103 56 C99.09050872 55.54636593 99.09050872 55.54636593 97.25 57.625 Z M21 63 C21 64.98 21 66.96 21 69 C23.26979665 69.10794277 25.54105196 69.18556176 27.8125 69.25 C29.07707031 69.29640625 30.34164062 69.3428125 31.64453125 69.390625 C35.04540232 69.33966199 35.04540232 69.33966199 36.94921875 67.109375 C38.14862902 65.09440502 38.14862902 65.09440502 38 63 C32.39 63 26.78 63 21 63 Z " fill="#585854" transform="translate(71,2)"/>
<path d="M0 0 C0.66 0 1.32 0 2 0 C2.34123581 1.99866686 2.6725678 3.99902542 3 6 C3.185625 7.11375 3.37125 8.2275 3.5625 9.375 C4 13 4 13 4 21 C11.26 21 18.52 21 26 21 C24.76736651 24.69790046 23.79947549 24.9354846 20.4375 26.6875 C19.61121094 27.12449219 18.78492187 27.56148437 17.93359375 28.01171875 C17.29550781 28.33785156 16.65742187 28.66398437 16 29 C16.6705542 29.01458252 17.3411084 29.02916504 18.03198242 29.04418945 C21.08438822 29.118883 24.13572585 29.21547299 27.1875 29.3125 C28.77014648 29.34633789 28.77014648 29.34633789 30.38476562 29.38085938 C31.40634766 29.41630859 32.42792969 29.45175781 33.48046875 29.48828125 C34.88655396 29.52755737 34.88655396 29.52755737 36.32104492 29.56762695 C39.51734442 30.0834974 41.43208879 31.03980792 44 33 C44.97333827 36.89335307 45.27382218 39.17853346 44 43 C45.65 44.65 47.3 46.3 49 48 C49.556875 47.195625 50.11375 46.39125 50.6875 45.5625 C54.05643705 41.82935354 56.78901333 42.06635543 61.70703125 41.796875 C76.54610151 41.50950496 76.54610151 41.50950496 82 45 C84.66057576 51.09715277 84.84302091 58.42806277 84 65 C82.24765052 68.607144 80.1727431 71.52854058 77 74 C74.08984375 74.42578125 74.08984375 74.42578125 70.9375 74.3125 C69.89464844 74.28800781 68.85179687 74.26351562 67.77734375 74.23828125 C65 74 65 74 62 73 C62 77.62 62 82.24 62 87 C60.35 87 58.7 87 57 87 C57 83.04 57 79.08 57 75 C55.02 74.505 55.02 74.505 53 74 C51.296875 72.00390625 51.296875 72.00390625 49.75 69.5625 C48.96882813 68.35787109 48.96882813 68.35787109 48.171875 67.12890625 C47 65 47 65 47 63 C44.98503253 64.85996997 43.24766527 66.5139847 41.99389648 68.97436523 C40.5626479 71.56653183 39.34337022 73.16410134 37 75 C31.87588541 76.0405261 26.8733548 75.79972977 21.6875 75.5625 C20.27807072 75.53091297 18.86855695 75.50288345 17.45898438 75.47851562 C7.24613981 75.24613981 7.24613981 75.24613981 6 74 C6 72.20922208 6.00185789 70.41841952 6.0144043 68.62768555 C6.01364147 61.53430902 6.01364147 61.53430902 3.07421875 55.265625 C0.80257264 53.28769418 -1.46179195 51.61677454 -4 50 C-5.33905991 49.00768133 -6.67435011 48.01016342 -8 47 C-7.67 46.34 -7.34 45.68 -7 45 C-3.37 47.31 0.26 49.62 4 52 C3.835 50.88625 3.67 49.7725 3.5 48.625 C3.38205078 47.53251953 3.38205078 47.53251953 3.26171875 46.41796875 C3.0832171 44.7688266 2.85431942 43.12455501 2.58203125 41.48828125 C2.28649194 38.69136571 2.22345099 36.71350934 3 34 C5.98653141 31.01895854 9.32645051 29.03636129 13 27 C13.99 26.34 14.98 25.68 16 25 C14.73542969 24.90912109 14.73542969 24.90912109 13.4453125 24.81640625 C11.80175781 24.69072266 11.80175781 24.69072266 10.125 24.5625 C9.03445312 24.48128906 7.94390625 24.40007813 6.8203125 24.31640625 C4 24 4 24 2 23 C1.37147066 20.66752185 0.84464754 18.30708533 0.375 15.9375 C-0.01558594 14.00197266 -0.01558594 14.00197266 -0.4140625 12.02734375 C-0.60742188 11.02832031 -0.80078125 10.02929688 -1 9 C-3.64 12.63 -6.28 16.26 -9 20 C-9.33 19.34 -9.66 18.68 -10 18 C-8.671875 15.64453125 -8.671875 15.64453125 -6.75 12.8125 C-3.9882146 8.62296526 -1.76993187 4.68511378 0 0 Z M21 45 C21 46.32 21 47.64 21 49 C24.63 49 28.26 49 32 49 C32.33 47.68 32.66 46.36 33 45 C29.04 45 25.08 45 21 45 Z M71.125 58.125 C69.75115632 61.63593385 69.90931394 63.41631723 71 67 C72.43691955 68.85801239 72.43691955 68.85801239 74 70 C76.46800047 68.84826645 78.04783565 67.95216435 80 66 C80.31537716 61.66356399 80.44897847 59.67346771 78 56 C74.52675621 55.28753974 73.50216659 55.43087786 71.125 58.125 Z M21 63 C21 64.98 21 66.96 21 69 C23.26979665 69.10794277 25.54105196 69.18556176 27.8125 69.25 C29.07707031 69.29640625 30.34164062 69.3428125 31.64453125 69.390625 C35.04540232 69.33966199 35.04540232 69.33966199 36.94921875 67.109375 C38.14862902 65.09440502 38.14862902 65.09440502 38 63 C32.39 63 26.78 63 21 63 Z " fill="#423F34" transform="translate(71,2)"/>
<path d="M0 0 C3.375 0.3125 3.375 0.3125 7 1 C9.32579101 4.48868651 9.41865457 5.89718519 9 10 C7.9375 12.25 7.9375 12.25 6 14 C3.67974374 14.71084442 1.3465568 15.38148561 -1 16 C-1.00410889 16.57967529 -1.00821777 17.15935059 -1.01245117 17.7565918 C-1.04549277 20.40124109 -1.11614264 23.04361839 -1.1875 25.6875 C-1.19620117 27.05551758 -1.19620117 27.05551758 -1.20507812 28.45117188 C-1.3537808 32.99486487 -1.51848218 35.34020396 -4.2578125 39.09375 C-7.03469976 41.02412177 -8.36583084 41.66426022 -11.6875 41.8125 C-12.55117187 41.85632813 -13.41484375 41.90015625 -14.3046875 41.9453125 C-15.19414062 41.96335938 -16.08359375 41.98140625 -17 42 C-17.88945312 42.03867188 -18.77890625 42.07734375 -19.6953125 42.1171875 C-24.42738142 42.24431771 -27.60997814 41.82917577 -32 40 C-34.74798717 40.28040685 -37.23317403 40.76995221 -39.875 41.5625 C-44.84354403 42.58543554 -49.12508644 42.61909076 -53.6875 40.4375 C-57.27817446 38.87928278 -58.38862287 38.76452888 -62 40 C-62.7425 40.350625 -63.485 40.70125 -64.25 41.0625 C-68.16704181 42.39785516 -71.89984256 42.16079049 -76 42 C-76.16435547 42.93972656 -76.16435547 42.93972656 -76.33203125 43.8984375 C-76.49058594 44.71570313 -76.64914063 45.53296875 -76.8125 46.375 C-76.96332031 47.18710938 -77.11414063 47.99921875 -77.26953125 48.8359375 C-78 51 -78 51 -81 53 C-84.47924476 53.44415891 -86.30917755 53.42943017 -89.3125 51.5625 C-91.42071201 48.36114103 -91.35036933 46.01221193 -91.5859375 42.26171875 C-92.27291257 38.50927946 -94.34911505 36.65088495 -97 34 C-97.763125 34.78375 -98.52625 35.5675 -99.3125 36.375 C-105.24326405 42.1678393 -110.876136 41.37230996 -118.6784668 41.37060547 C-120.9263893 41.37497839 -123.17234679 41.41130369 -125.41992188 41.44921875 C-126.8515558 41.45508737 -128.28319903 41.45905646 -129.71484375 41.4609375 C-131.01542725 41.46915527 -132.31601074 41.47737305 -133.65600586 41.48583984 C-137 41 -137 41 -139.45532227 39.28369141 C-141.26641564 36.60612424 -141.35198976 35.1679078 -141 32 C-140.1028125 32.05760498 -139.205625 32.11520996 -138.28125 32.17456055 C-134.91830878 32.3632483 -131.56105053 32.50039879 -128.19482422 32.60424805 C-126.74502363 32.65924048 -125.29582427 32.73407754 -123.84814453 32.82983398 C-119.02581683 33.14057667 -114.70714396 33.2006834 -110 32 C-107.10110105 29.33311724 -105.31955211 26.80041463 -103.3828125 23.38208008 C-102.92648438 22.59599365 -102.47015625 21.80990723 -102 21 C-101.34 21 -100.68 21 -100 21 C-98.11463577 23.75762913 -96.45394308 26.62108546 -94.75390625 29.49609375 C-93.1809899 32.27055597 -93.1809899 32.27055597 -90 33 C-90 36.96 -90 40.92 -90 45 C-88.35 45 -86.7 45 -85 45 C-85 40.38 -85 35.76 -85 31 C-80 32 -80 32 -78 33 C-71.89636404 33.59839568 -68.93842298 32.29228199 -64 29 C-63.34 28.34 -62.68 27.68 -62 27 C-61.4225 27.61875 -60.845 28.2375 -60.25 28.875 C-56.39570136 32.51517093 -53.61628086 33.41191375 -48.21484375 33.3515625 C-45.59728125 32.93607639 -43.71804074 31.97486109 -41.375 30.75 C-39.0859375 29.625 -39.0859375 29.625 -37 29 C-34 30.75 -34 30.75 -31 33 C-25.65963123 33.7966296 -20.28709799 32.8293487 -15 32 C-13.68 32 -12.36 32 -11 32 C-10.98018066 31.44538086 -10.96036133 30.89076172 -10.93994141 30.31933594 C-10.84442349 27.79576307 -10.73485433 25.27298776 -10.625 22.75 C-10.5940625 21.87730469 -10.563125 21.00460938 -10.53125 20.10546875 C-10.47324219 18.83896484 -10.47324219 18.83896484 -10.4140625 17.546875 C-10.3826416 16.77182617 -10.3512207 15.99677734 -10.31884766 15.19824219 C-9.960492 12.72761864 -9.33585248 11.10603821 -8 9 C-4.76967782 7.07555275 -2.78176921 6 1 6 C0.67 4.02 0.34 2.04 0 0 Z " fill="#FDFDFD" transform="translate(218,44)"/>
<path d="M0 0 C4.2290362 -0.08725659 8.45784012 -0.1404789 12.6875 -0.1875 C13.88568359 -0.21263672 15.08386719 -0.23777344 16.31835938 -0.26367188 C17.47529297 -0.27333984 18.63222656 -0.28300781 19.82421875 -0.29296875 C20.88729248 -0.3086792 21.95036621 -0.32438965 23.0456543 -0.34057617 C26.45737947 0.05272658 28.30568424 0.88743564 31 3 C31.97333827 6.89335307 32.27382218 9.17853346 31 13 C33.475 15.475 33.475 15.475 36 18 C35.34 19.65 34.68 21.3 34 23 C29.97449681 21.6581656 29.11714364 19.5772427 27 16 C27 15.34 27 14.68 27 14 C24.66705225 13.95758277 22.33297433 13.95907063 20 14 C19.67 14.33 19.34 14.66 19 15 C17.14712498 15.07226502 15.29166122 15.0838122 13.4375 15.0625 C12.42558594 15.05347656 11.41367188 15.04445313 10.37109375 15.03515625 C9.19740234 15.01775391 9.19740234 15.01775391 8 15 C8 16.32 8 17.64 8 19 C11.63 19 15.26 19 19 19 C19 18.34 19 17.68 19 17 C22.68646141 18.45855647 24.16143971 20.30229045 26.25 23.625 C26.77078125 24.44226563 27.2915625 25.25953125 27.828125 26.1015625 C28.21484375 26.72804688 28.6015625 27.35453125 29 28 C28.07421875 30.48046875 28.07421875 30.48046875 26 33 C22.92924082 33.65475435 19.93480827 33.46946059 16.8125 33.3125 C15.96751953 33.28994141 15.12253906 33.26738281 14.25195312 33.24414062 C12.16721202 33.18524963 10.08338196 33.09556798 8 33 C8 34.98 8 36.96 8 39 C12.29 39 16.58 39 21 39 C21 39.33 21 39.66 21 40 C14.07 40 7.14 40 0 40 C0 35.05 0 30.1 0 25 C7.26 25 14.52 25 22 25 C22 23.35 22 21.7 22 20 C14.74 20 7.48 20 0 20 C0 15.71 0 11.42 0 7 C7.59 6.67 15.18 6.34 23 6 C23 4.68 23 3.36 23 2 C11.615 1.505 11.615 1.505 0 1 C0 0.67 0 0.34 0 0 Z " fill="#FEFEFE" transform="translate(84,32)"/>
<path d="M0 0 C2.31 0 4.62 0 7 0 C7.33 0.66 7.66 1.32 8 2 C7.67 2.66 7.34 3.32 7 4 C7.69867188 3.98839844 8.39734375 3.97679687 9.1171875 3.96484375 C10.02726562 3.95582031 10.93734375 3.94679687 11.875 3.9375 C13.23238281 3.92009766 13.23238281 3.92009766 14.6171875 3.90234375 C17 4 17 4 19 5 C22.61202629 10.28621366 23.45028522 14.69600687 23 21 C22 19 21 17 20 15 C18.35 15 16.7 15 15 15 C13.01025287 17.80905477 12.8988988 19.87286664 13.25 23.1875 C13.4975 24.445625 13.745 25.70375 14 27 C14.66 27.33 15.32 27.66 16 28 C14.3125 28.6875 14.3125 28.6875 12 29 C9.3125 27.75 9.3125 27.75 7 26 C6.67 25.01 6.34 24.02 6 23 C5.01 22.67 4.02 22.34 3 22 C2.67 19.03 2.34 16.06 2 13 C1.01 13.495 1.01 13.495 0 14 C-0.46898963 16.8159849 -0.46898963 16.8159849 -0.625 20.0625 C-0.69976562 21.16722656 -0.77453125 22.27195312 -0.8515625 23.41015625 C-0.90054688 24.26480469 -0.94953125 25.11945313 -1 26 C-1.60328125 25.39285156 -2.2065625 24.78570312 -2.828125 24.16015625 C-4.44023309 22.55674658 -6.08652635 20.98755499 -7.75 19.4375 C-10 17 -10 17 -10 14 C-9.34 14 -8.68 14 -8 14 C-7.83177734 13.12601563 -7.83177734 13.12601563 -7.66015625 12.234375 C-6.93999124 9.79689343 -5.95620605 8.2749414 -4.4375 6.25 C-3.98246094 5.63640625 -3.52742188 5.0228125 -3.05859375 4.390625 C-2.70925781 3.93171875 -2.35992187 3.4728125 -2 3 C0.97 3.495 0.97 3.495 4 4 C4 3.01 4 2.02 4 1 C2.68 0.67 1.36 0.34 0 0 Z " fill="#FDFDFD" transform="translate(129,44)"/>
<path d="M0 0 C0.66 0 1.32 0 2 0 C2.33 3.63 2.66 7.26 3 11 C6.63 11 10.26 11 14 11 C13.67 11.99 13.34 12.98 13 14 C11.66535966 14.64615779 10.30733587 15.24475497 8.9375 15.8125 C6.64999311 16.96553387 6.64999311 16.96553387 5 19 C4.27431504 23.73039084 4.53721133 28.24998847 5 33 C2.4683886 31.52426593 0.20797592 30.19455812 -1.9375 28.1875 C-4.04241612 26.67667713 -4.04241612 26.67667713 -6.9375 27.5625 C-10.06518813 29.03059851 -12.35747595 30.79789663 -15 33 C-15.66 33 -16.32 33 -17 33 C-15.9214967 30.17929907 -14.7733663 27.5887018 -13.3125 24.9375 C-11.87594819 22.22199389 -11.87594819 22.22199389 -11.9375 19.9375 C-13.61183771 16.88429593 -16.30381696 15.17989267 -19 13 C-19 12.34 -19 11.68 -19 11 C-17.82244141 11.19142578 -17.82244141 11.19142578 -16.62109375 11.38671875 C-13.13415982 11.71615913 -10.42212471 11.798923 -7 11 C-4.4892173 8.30895598 -2.96696104 5.68117698 -1.3046875 2.40625 C-0.87414062 1.6121875 -0.44359375 0.818125 0 0 Z " fill="#4F5051" transform="translate(68,16)"/>
<path d="M0 0 C9.41002278 -0.3690205 9.41002278 -0.3690205 14 2 C13.34 3.32 12.68 4.64 12 6 C13.04800781 5.96519531 14.09601563 5.93039063 15.17578125 5.89453125 C16.55467147 5.86639063 17.93357902 5.83909076 19.3125 5.8125 C20.34793945 5.77479492 20.34793945 5.77479492 21.40429688 5.73632812 C26.5175964 5.66222233 26.5175964 5.66222233 28.98046875 7.38671875 C30 9 30 9 30 11 C30.99 11 31.98 11 33 11 C33 12.98 33 14.96 33 17 C28.05 15.68 23.1 14.36 18 13 C21.48343343 17.08702325 21.48343343 17.08702325 25.0625 18 C28 19 28 19 30 20.8125 C31 23 31 23 30.1875 25.75 C29.795625 26.4925 29.40375 27.235 29 28 C21.80318209 29.34177961 21.80318209 29.34177961 18.0625 27.75 C16 26 16 26 15 23 C13.02 23.99 13.02 23.99 11 25 C11.33 24.01 11.66 23.02 12 22 C12.17143087 19.71238153 12.26643463 17.41857031 12.3125 15.125 C12.36857422 13.30355469 12.36857422 13.30355469 12.42578125 11.4453125 C11.92227947 7.37110546 10.95140689 5.8076862 8 3 C5.91365324 2.00243506 5.91365324 2.00243506 3.75 1.6875 C1.89375 1.3471875 1.89375 1.3471875 0 1 C0 0.67 0 0.34 0 0 Z " fill="#444030" transform="translate(169,44)"/>
<path d="M0 0 C0.89332031 0.00064453 1.78664062 0.00128906 2.70703125 0.00195312 C9.32393915 0.04646147 9.32393915 0.04646147 11.99169922 0.72924805 C14.48425808 1.33574701 16.39754984 0.7231649 18.875 0.1875 C19.875 1.1875 19.875 1.1875 19.9375 3.75 C19.916875 4.554375 19.89625 5.35875 19.875 6.1875 C18.91787109 6.44273438 18.91787109 6.44273438 17.94140625 6.703125 C17.11511719 6.94546875 16.28882813 7.1878125 15.4375 7.4375 C14.61378906 7.66953125 13.79007813 7.9015625 12.94140625 8.140625 C10.72007116 8.96400872 10.72007116 8.96400872 10.265625 10.96875 C9.86536136 13.24224748 9.66764248 15.42877324 9.55859375 17.734375 C9.51669922 18.57871094 9.47480469 19.42304687 9.43164062 20.29296875 C9.39232422 21.16566406 9.35300781 22.03835937 9.3125 22.9375 C9.26931641 23.82566406 9.22613281 24.71382812 9.18164062 25.62890625 C9.07586385 27.81495963 8.97377454 30.00112089 8.875 32.1875 C6.4 32.6825 6.4 32.6825 3.875 33.1875 C4.18282496 31.54078588 4.49639234 29.89514424 4.8125 28.25 C5.07353516 26.87521484 5.07353516 26.87521484 5.33984375 25.47265625 C5.875 23.1875 5.875 23.1875 6.875 22.1875 C7.10575082 20.84002916 7.28653063 19.48372435 7.4375 18.125 C7.581875 16.825625 7.72625 15.52625 7.875 14.1875 C5.4 13.6925 5.4 13.6925 2.875 13.1875 C2.875 12.5275 2.875 11.8675 2.875 11.1875 C1.885 11.1875 0.895 11.1875 -0.125 11.1875 C-0.58132812 10.53136719 -1.03765625 9.87523437 -1.5078125 9.19921875 C-2.94334511 6.95016091 -2.94334511 6.95016091 -5.4296875 6.83203125 C-6.27789062 6.88746094 -7.12609375 6.94289063 -8 7 C-11.57032643 7.15137349 -14.63915249 7.11705933 -18.125 6.1875 C-17.5 4.3125 -17.5 4.3125 -16.125 2.1875 C-10.81941299 -0.23718706 -5.70763497 -0.07892654 0 0 Z " fill="#716C59" transform="translate(199.125,43.8125)"/>
<path d="M0 0 C3.1875 0 3.1875 0 7 1 C8.63045226 2.95992189 9.77649603 4.93118696 10.95703125 7.1875 C11.87414248 9.16715104 11.87414248 9.16715104 14 10 C14.2475 9.46375 14.495 8.9275 14.75 8.375 C15.1625 7.59125 15.575 6.8075 16 6 C16.7734375 4.39125 16.7734375 4.39125 17.5625 2.75 C20 0 20 0 22.26171875 -0.3828125 C24.53659267 -0.37567004 26.74094806 -0.26065984 29 0 C29 0.99 29 1.98 29 3 C27.02 2.67 25.04 2.34 23 2 C22.7525 2.515625 22.505 3.03125 22.25 3.5625 C20.60418384 6.77184151 18.8023904 9.87585664 17 13 C16.01 13 15.02 13 14 13 C14.103125 13.7425 14.20625 14.485 14.3125 15.25 C14 18 14 18 11.8125 19.8125 C10.4203125 20.8953125 10.4203125 20.8953125 9 22 C8.29893346 23.35635957 7.62367127 24.72623574 6.96875 26.10546875 C5.3917742 28.70490206 4.68156734 29.80492191 1.72338867 30.65161133 C-0.99421076 30.78781192 -3.59909178 30.69943071 -6.3125 30.5 C-7.24384766 30.46390625 -8.17519531 30.4278125 -9.13476562 30.390625 C-11.42741807 30.29656746 -13.71157091 30.16539029 -16 30 C-15.505 28.515 -15.505 28.515 -15 27 C-13.92621094 27.04382813 -12.85242188 27.08765625 -11.74609375 27.1328125 C-3.43593041 27.41315516 -3.43593041 27.41315516 3.62109375 23.70703125 C5.32266187 21.19889861 6.75695463 18.76176613 8 16 C5.28316728 11.06945173 2.33342102 6.53715638 -1 2 C-0.67 1.34 -0.34 0.68 0 0 Z " fill="#151204" transform="translate(104,45)"/>
<path d="M0 0 C0.66 0 1.32 0 2 0 C2.34123581 1.99866686 2.6725678 3.99902542 3 6 C3.185625 7.11375 3.37125 8.2275 3.5625 9.375 C4 13 4 13 4 21 C11.26 21 18.52 21 26 21 C24.7061752 24.88147439 23.38002393 25.15124266 19.8125 27 C18.81992188 27.51820312 17.82734375 28.03640625 16.8046875 28.5703125 C15.87914063 29.04210937 14.95359375 29.51390625 14 30 C13.34257813 30.34804688 12.68515625 30.69609375 12.0078125 31.0546875 C8.28392857 33 8.28392857 33 6 33 C6.0721875 33.63164063 6.144375 34.26328125 6.21875 34.9140625 C7.01880314 42.62568579 7.10180114 50.25180183 7 58 C3.24269753 56.3718356 0.383177 53.98598083 -2.75 51.375 C-3.73484375 50.55773438 -4.7196875 49.74046875 -5.734375 48.8984375 C-6.48203125 48.27195313 -7.2296875 47.64546875 -8 47 C-7.67 46.34 -7.34 45.68 -7 45 C-3.37 47.31 0.26 49.62 4 52 C3.835 50.88625 3.67 49.7725 3.5 48.625 C3.38205078 47.53251953 3.38205078 47.53251953 3.26171875 46.41796875 C3.0832171 44.7688266 2.85431942 43.12455501 2.58203125 41.48828125 C2.28649194 38.69136571 2.22345099 36.71350934 3 34 C5.98653141 31.01895854 9.32645051 29.03636129 13 27 C13.99 26.34 14.98 25.68 16 25 C14.73542969 24.90912109 14.73542969 24.90912109 13.4453125 24.81640625 C11.80175781 24.69072266 11.80175781 24.69072266 10.125 24.5625 C9.03445312 24.48128906 7.94390625 24.40007813 6.8203125 24.31640625 C4 24 4 24 2 23 C1.37147066 20.66752185 0.84464754 18.30708533 0.375 15.9375 C-0.01558594 14.00197266 -0.01558594 14.00197266 -0.4140625 12.02734375 C-0.60742188 11.02832031 -0.80078125 10.02929688 -1 9 C-3.64 12.63 -6.28 16.26 -9 20 C-9.33 19.34 -9.66 18.68 -10 18 C-8.671875 15.64453125 -8.671875 15.64453125 -6.75 12.8125 C-3.9882146 8.62296526 -1.76993187 4.68511378 0 0 Z " fill="#525152" transform="translate(71,2)"/>
<path d="M0 0 C0.5625 1.9375 0.5625 1.9375 1 4 C0 5 0 5 -2.22485352 5.11352539 C-3.18319092 5.10828857 -4.14152832 5.10305176 -5.12890625 5.09765625 C-6.68061523 5.09282227 -6.68061523 5.09282227 -8.26367188 5.08789062 C-9.35228516 5.07951172 -10.44089844 5.07113281 -11.5625 5.0625 C-13.2012207 5.05573242 -13.2012207 5.05573242 -14.87304688 5.04882812 C-17.58205432 5.0369984 -20.2910338 5.01906231 -23 5 C-23 9.29 -23 13.58 -23 18 C-15.74 18 -8.48 18 -1 18 C-1 19.65 -1 21.3 -1 23 C-8.26 23 -15.52 23 -23 23 C-23 27.62 -23 32.24 -23 37 C-25.1504024 33.77439641 -25.34244854 32.43663764 -25.6328125 28.66796875 C-25.71660156 27.62189453 -25.80039063 26.57582031 -25.88671875 25.49804688 C-25.96535156 24.40556641 -26.04398437 23.31308594 -26.125 22.1875 C-26.21136719 21.10662109 -26.29773438 20.02574219 -26.38671875 18.91210938 C-27.48398824 4.72598236 -27.48398824 4.72598236 -25 1 C-22.69335938 0.67529297 -22.69335938 0.67529297 -19.84375 0.7421875 C-18.31041016 0.76345703 -18.31041016 0.76345703 -16.74609375 0.78515625 C-15.67488281 0.81480469 -14.60367188 0.84445313 -13.5 0.875 C-11.38549831 0.91825695 -9.27090997 0.95752094 -7.15625 0.9921875 C-5.74569336 1.02868408 -5.74569336 1.02868408 -4.30664062 1.06591797 C-1.97146815 1.16135118 -1.97146815 1.16135118 0 0 Z " fill="#3E310D" transform="translate(107,34)"/>
<path d="M0 0 C3.88733965 2.74400446 3.88733965 2.74400446 5 6 C5.76123638 11.84075911 6.54772401 18.55987195 3.125 23.6875 C2.42375 24.450625 1.7225 25.21375 1 26 C0.34 26.99 -0.32 27.98 -1 29 C-4.52495758 30.43609383 -8.25422435 30.27242005 -12 30 C-13.9375 28.5 -13.9375 28.5 -15 27 C-12.40455603 26.27327569 -10.22628048 25.95855074 -7.5 25.8125 C-3.82591915 25.30382348 -3.82591915 25.30382348 -1.5625 22.375 C0.24187404 18.47755208 0.53114015 16.24912122 0 12 C-1.57724302 8.01933905 -2.41000911 6.39332726 -6 4 C-8.21582589 3.68439676 -8.21582589 3.68439676 -10.5625 3.75 C-11.34753906 3.74484375 -12.13257813 3.7396875 -12.94140625 3.734375 C-15.22290968 3.81570738 -15.22290968 3.81570738 -17 6 C-17.99 6 -18.98 6 -20 6 C-19.62724214 3.29750549 -19.21551151 2.20064865 -17.1875 0.3125 C-11.56837355 -3.05897587 -6.03009311 -1.88217403 0 0 Z " fill="#141204" transform="translate(177,46)"/>
<path d="M0 0 C3.55104382 0.07747732 4.14560345 0.40451761 7.125 2.75 C10.39173534 7.00665513 10.28623257 10.20467403 10.1875 15.4375 C8.85416667 13.4375 7.52083333 11.4375 6.1875 9.4375 C3.71483235 9.78194881 3.71483235 9.78194881 1.1875 10.4375 C-0.21707737 13.24665474 -0.06145157 15.32560534 0.1875 18.4375 C1.56676773 20.78011608 1.56676773 20.78011608 3.1875 22.4375 C1.0625 23.25 1.0625 23.25 -1.8125 23.4375 C-7.24533582 19.57182836 -7.24533582 19.57182836 -8.8125 16.4375 C-9.36641144 11.01555915 -9.30304186 6.86780313 -5.8125 2.4375 C-3.8125 0.4375 -3.8125 0.4375 0 0 Z " fill="#FDFDFD" transform="translate(167.8125,49.5625)"/>
<path d="M0 0 C2.31 0 4.62 0 7 0 C7.33 0.66 7.66 1.32 8 2 C7.67 2.66 7.34 3.32 7 4 C7.69867188 3.98839844 8.39734375 3.97679687 9.1171875 3.96484375 C10.02726562 3.95582031 10.93734375 3.94679687 11.875 3.9375 C13.23238281 3.92009766 13.23238281 3.92009766 14.6171875 3.90234375 C17 4 17 4 19 5 C18.67 5.66 18.34 6.32 18 7 C17.39671875 6.93039063 16.7934375 6.86078125 16.171875 6.7890625 C13.67901672 6.62019146 11.46989235 6.60889829 9 7 C6.07177592 9.71396378 5.11891506 11.64557762 4.76953125 15.625 C4.75196239 18.09869495 4.82449015 20.53311158 5 23 C4.34 22.67 3.68 22.34 3 22 C2.5859375 19.93359375 2.5859375 19.93359375 2.375 17.4375 C2.26285156 16.19806641 2.26285156 16.19806641 2.1484375 14.93359375 C2.09945312 14.29550781 2.05046875 13.65742187 2 13 C1.01 13.495 1.01 13.495 0 14 C-0.46898963 16.8159849 -0.46898963 16.8159849 -0.625 20.0625 C-0.69976562 21.16722656 -0.77453125 22.27195312 -0.8515625 23.41015625 C-0.90054688 24.26480469 -0.94953125 25.11945313 -1 26 C-1.60328125 25.39285156 -2.2065625 24.78570312 -2.828125 24.16015625 C-4.44023309 22.55674658 -6.08652635 20.98755499 -7.75 19.4375 C-10 17 -10 17 -10 14 C-9.34 14 -8.68 14 -8 14 C-7.83177734 13.12601563 -7.83177734 13.12601563 -7.66015625 12.234375 C-6.93999124 9.79689343 -5.95620605 8.2749414 -4.4375 6.25 C-3.98246094 5.63640625 -3.52742188 5.0228125 -3.05859375 4.390625 C-2.70925781 3.93171875 -2.35992187 3.4728125 -2 3 C0.97 3.495 0.97 3.495 4 4 C4 3.01 4 2.02 4 1 C2.68 0.67 1.36 0.34 0 0 Z " fill="#706955" transform="translate(129,44)"/>
<path d="M0 0 C1.20849609 0.00644531 2.41699219 0.01289062 3.66210938 0.01953125 C5.55606445 0.04466797 5.55606445 0.04466797 7.48828125 0.0703125 C8.76251953 0.07933594 10.03675781 0.08835938 11.34960938 0.09765625 C14.50018752 0.12125609 17.65039108 0.15418056 20.80078125 0.1953125 C20.80078125 0.8553125 20.80078125 1.5153125 20.80078125 2.1953125 C14.08731798 5.55204414 3.06781015 2.9964023 -4.19921875 2.1953125 C-4.94442278 7.16333939 -5.26407918 11.63013988 -4.76171875 16.6328125 C-4.2475169 22.01108587 -3.98530544 27.3581711 -3.88671875 32.7578125 C-3.85715088 33.54406006 -3.82758301 34.33030762 -3.79711914 35.14038086 C-3.7734375 37.38671875 -3.7734375 37.38671875 -4.19921875 41.1953125 C-6.21875 43.22265625 -6.21875 43.22265625 -8.19921875 44.1953125 C-10.34328928 42.05124197 -9.38806975 37.17296341 -9.40234375 34.19921875 C-9.40804382 33.2953392 -9.4137439 32.39145966 -9.4196167 31.46018982 C-9.42908104 29.54435401 -9.43560635 27.62850181 -9.43945312 25.71264648 C-9.44916644 22.77363882 -9.48017922 19.83532793 -9.51171875 16.89648438 C-9.51824763 15.03906667 -9.52349856 13.18164395 -9.52734375 11.32421875 C-9.53969055 10.44085342 -9.55203735 9.5574881 -9.5647583 8.64735413 C-9.55566406 6.17016602 -9.55566406 6.17016602 -9.19921875 2.1953125 C-5.6590865 -0.16477567 -4.1879992 -0.03932394 0 0 Z " fill="#1A1402" transform="translate(86.19921875,32.8046875)"/>
<path d="M0 0 C0.66 0 1.32 0 2 0 C2.33 3.63 2.66 7.26 3 11 C4.32 11.33 5.64 11.66 7 12 C7 12.66 7 13.32 7 14 C6.01 14.495 6.01 14.495 5 15 C4.30906104 17.57951874 4.30906104 17.57951874 3.875 20.5625 C3.70742187 21.57441406 3.53984375 22.58632813 3.3671875 23.62890625 C3.24601562 24.41136719 3.12484375 25.19382812 3 26 C0.54293443 23.82818742 0.03684919 23.36112209 -0.3125 19.9375 C0 17 0 17 2 15 C0.68 13.68 -0.64 12.36 -2 11 C-2.99 11.33 -3.98 11.66 -5 12 C-5 12.66 -5 13.32 -5 14 C-6.65 14 -8.3 14 -10 14 C-9.34 14.66 -8.68 15.32 -8 16 C-7.875 19.125 -7.875 19.125 -8 22 C-6.68 22.33 -5.36 22.66 -4 23 C-5.20783751 26.62351253 -6.29653142 27.15215236 -9.4375 29.1875 C-10.24058594 29.71730469 -11.04367188 30.24710938 -11.87109375 30.79296875 C-14 32 -14 32 -16 32 C-14.9214967 29.17929907 -13.7733663 26.5887018 -12.3125 23.9375 C-10.87594819 21.22199389 -10.87594819 21.22199389 -10.9375 18.9375 C-12.61183771 15.88429593 -15.30381696 14.17989267 -18 12 C-18 11.34 -18 10.68 -18 10 C-17.20335937 10.11601562 -16.40671875 10.23203125 -15.5859375 10.3515625 C-12.15423519 10.64379992 -9.37469499 10.73175784 -6 10 C-3.72254984 7.54138904 -2.47836698 5.22552797 -1.0859375 2.1875 C-0.72757813 1.465625 -0.36921875 0.74375 0 0 Z " fill="#3D3B2E" transform="translate(67,17)"/>
<path d="M0 0 C5.67276511 -0.29341888 8.99067246 -0.00559652 14 3 C13.34 4.65 12.68 6.3 12 8 C12.639375 7.505 13.27875 7.01 13.9375 6.5 C18.04023483 4.49049723 21.51443582 4.73614328 26 5 C26 5.33 26 5.66 26 6 C24.906875 6.103125 23.81375 6.20625 22.6875 6.3125 C18.55944323 7.04684828 18.55944323 7.04684828 16 10 C15.07649273 12.77052181 14.83670415 14.56688758 14.8125 17.4375 C14.79123047 18.58025391 14.79123047 18.58025391 14.76953125 19.74609375 C15.02387334 22.23347315 15.75982804 23.84808106 17 26 C15.68 27.65 14.36 29.3 13 31 C12.34 30.01 11.68 29.02 11 28 C10.071875 28.804375 9.14375 29.60875 8.1875 30.4375 C4.0293933 34.04119247 0.444822 34.29699029 -5 34 C-5.66 33.34 -6.32 32.68 -7 32 C-6.33613281 31.98582031 -5.67226562 31.97164062 -4.98828125 31.95703125 C-0.31732693 31.70473153 2.27933198 31.5588854 6.0625 28.625 C10.69524458 22.34837831 9.42947132 13.67249239 8.5 6.25 C8.2525 4.64125 8.2525 4.64125 8 3 C5.36 2.34 2.72 1.68 0 1 C0 0.67 0 0.34 0 0 Z " fill="#7B786B" transform="translate(145,44)"/>
<path d="M0 0 C0.76183594 0.07863281 1.52367187 0.15726563 2.30859375 0.23828125 C4.7458779 0.72404846 6.47856121 1.32998868 8.5625 2.6875 C10.91564511 9.04099179 11.42445221 15.96798005 10.5625 22.6875 C9.13671875 25.40625 9.13671875 25.40625 7.5625 27.6875 C7.0675 28.450625 6.5725 29.21375 6.0625 30 C1.94855576 32.77691236 -2.62037754 31.98649381 -7.4375 31.6875 C-7.7675 30.0375 -8.0975 28.3875 -8.4375 26.6875 C-6.6121875 27.0278125 -6.6121875 27.0278125 -4.75 27.375 C-1.6591967 27.75793138 -0.53547656 27.72796858 2.4375 26.5 C4.75861816 24.52022274 5.69597314 23.60218124 6.5625 20.6875 C7.00632415 15.09531566 6.78615536 12.38866407 3.5625 7.6875 C3.5625 6.6975 3.5625 5.7075 3.5625 4.6875 C-0.3975 4.3575 -4.3575 4.0275 -8.4375 3.6875 C-8.1075 2.6975 -7.7775 1.7075 -7.4375 0.6875 C-4.43848764 -0.31217079 -3.06019291 -0.34575535 0 0 Z " fill="#1B1604" transform="translate(144.4375,44.3125)"/>
<path d="M0 0 C4.00223881 0.4140247 7.44117244 0.80655969 11.25 2.125 C14.08641106 3.02749443 15.27077066 3.04970359 18 2 C17.20390933 7.43995289 16.41732001 12.69685499 13.5 17.4375 C9.55999779 19.90000138 5.52467012 19.3108552 1 19 C0.67 18.01 0.34 17.02 0 16 C5.445 15.01 5.445 15.01 11 14 C12.22627236 10.3222689 12.22627236 10.3222689 11.5625 7.875 C9.36723703 5.24068443 7.11690303 5.22257126 3.84375 4.5703125 C2 4 2 4 0.5 1.875 C0.335 1.25625 0.17 0.6375 0 0 Z " fill="#141207" transform="translate(187,57)"/>
<path d="M0 0 C0 1.65 0 3.3 0 5 C-0.78375 4.95875 -1.5675 4.9175 -2.375 4.875 C-5.16116119 4.71271266 -5.16116119 4.71271266 -7 7 C-8.81640625 6.625 -8.81640625 6.625 -11 6 C-12.64527663 5.95719606 -14.2921666 5.95943708 -15.9375 6 C-19.44041119 6.04139334 -22.59059233 5.90917538 -26 5 C-25.04922839 2.14768516 -24.31685782 1.16676728 -21.625 -0.25 C-14.55949246 -1.71182915 -7.04967296 -1.56659399 0 0 Z " fill="#5F5842" transform="translate(207,45)"/>
<path d="M0 0 C0.33 0 0.66 0 1 0 C1.06058594 0.83144531 1.12117188 1.66289063 1.18359375 2.51953125 C1.26738281 3.60621094 1.35117188 4.69289063 1.4375 5.8125 C1.55931641 7.43091797 1.55931641 7.43091797 1.68359375 9.08203125 C1.90212461 12.05989905 1.90212461 12.05989905 3 15 C4.65 15.33 6.3 15.66 8 16 C7.67 16.99 7.34 17.98 7 19 C13.6 19 20.2 19 27 19 C27.66 17.35 28.32 15.7 29 14 C30.92898484 11.20544504 32.919003 8.5404985 36 7 C36.65555119 4.47266765 36.65555119 4.47266765 37 2 C37.495 3.485 37.495 3.485 38 5 C38.99 5.33 39.98 5.66 41 6 C40.01 6.33 39.02 6.66 38 7 C37.26676204 9.01508358 37.26676204 9.01508358 37 11 C37 10.34 37 9.68 37 9 C34.98454304 10.86042181 33.24621099 12.52358408 31.97851562 14.9765625 C30.54601036 17.5471266 29.319564 19.16508233 27 21 C22.03394253 22.00789099 17.15669674 21.75629979 12.125 21.5 C10.75531217 21.4598294 9.38551131 21.4233348 8.015625 21.390625 C4.67419647 21.29650025 1.33854961 21.16511754 -2 21 C-1.01 19.515 -1.01 19.515 0 18 C0.27401018 15.97078331 0.27401018 15.97078331 0.1953125 13.76953125 C0.18886719 12.96708984 0.18242188 12.16464844 0.17578125 11.33789062 C0.15064453 10.08782227 0.15064453 10.08782227 0.125 8.8125 C0.11146484 7.5450293 0.11146484 7.5450293 0.09765625 6.25195312 C0.07410703 4.16784757 0.03823647 2.08388783 0 0 Z " fill="#313027" transform="translate(81,56)"/>
<path d="M0 0 C2.29804979 0.56401222 4.58637927 1.14985288 6.875 1.75 C8.15117187 2.07484375 9.42734375 2.3996875 10.7421875 2.734375 C14 4 14 4 15.4453125 6.140625 C15.62835938 6.75421875 15.81140625 7.3678125 16 8 C14 11 14 11 10.1875 11.875 C7.19001716 12.14156381 5.99483969 11.99786857 3.125 10.8125 C0.88295488 8.90016739 -0.1705516 7.82012457 -1 5 C-0.70688927 3.32579124 -0.37739261 1.65724582 0 0 Z " fill="#FDFDFD" transform="translate(184,61)"/>
<path d="M0 0 C1.17369141 -0.02513672 1.17369141 -0.02513672 2.37109375 -0.05078125 C5.05300614 0.39381385 5.93997608 1.1682642 7.5625 3.3125 C7.5625 3.9725 7.5625 4.6325 7.5625 5.3125 C8.5525 5.3125 9.5425 5.3125 10.5625 5.3125 C10.5625 7.2925 10.5625 9.2725 10.5625 11.3125 C7.90951149 10.58270384 5.26701786 9.83018913 2.625 9.0625 C1.87025391 8.85753906 1.11550781 8.65257812 0.33789062 8.44140625 C-1.83984375 7.796875 -1.83984375 7.796875 -5.4375 6.3125 C-6.28735352 4.34472656 -6.28735352 4.34472656 -6.4375 2.3125 C-4.02263057 -0.10236943 -3.31042211 0.0163075 0 0 Z " fill="#FDFCFC" transform="translate(191.4375,49.6875)"/>
<path d="M0 0 C0.33 0 0.66 0 1 0 C2.67910431 6.80636927 3.26294311 13.51465333 3.375 20.5 C3.40078125 21.28938965 3.4265625 22.0787793 3.453125 22.89208984 C3.4609375 25.15625 3.4609375 25.15625 3 29 C0.9765625 31.03125 0.9765625 31.03125 -1 32 C-2.68443428 30.31556572 -2.1646299 28.23230865 -2.18945312 25.98242188 C-2.18880859 25.28697266 -2.18816406 24.59152344 -2.1875 23.875 C-2.18814453 23.16666016 -2.18878906 22.45832031 -2.18945312 21.72851562 C-2.11786853 14.38133321 -1.16633242 7.24792288 0 0 Z " fill="#110E01" transform="translate(79,45)"/>
<path d="M0 0 C0.66 0 1.32 0 2 0 C2.33 3.63 2.66 7.26 3 11 C6.63 11 10.26 11 14 11 C13.67 11.99 13.34 12.98 13 14 C11.66535966 14.64615779 10.30733587 15.24475497 8.9375 15.8125 C6.64999311 16.96553387 6.64999311 16.96553387 5 19 C4.27431504 23.73039084 4.53721133 28.24998847 5 33 C3.68 32.34 2.36 31.68 1 31 C1.11455681 29.08268082 1.24206258 27.1661325 1.375 25.25 C1.44460937 24.18265625 1.51421875 23.1153125 1.5859375 22.015625 C1.9728223 19.19793568 2.55686166 17.4169634 4 15 C4.66 15 5.32 15 6 15 C6 14.34 6 13.68 6 13 C4.35 12.67 2.7 12.34 1 12 C0.67 8.04 0.34 4.08 0 0 Z " fill="#525355" transform="translate(68,16)"/>
<path d="M0 0 C0.66 0 1.32 0 2 0 C2.99 6.93 3.98 13.86 5 21 C4.01 21.33 3.02 21.66 2 22 C1.01 17.71 0.02 13.42 -1 9 C-3.64 12.63 -6.28 16.26 -9 20 C-9.33 19.34 -9.66 18.68 -10 18 C-8.671875 15.64453125 -8.671875 15.64453125 -6.75 12.8125 C-3.9882146 8.62296526 -1.76993187 4.68511378 0 0 Z " fill="#262E2C" transform="translate(71,2)"/>
<path d="M0 0 C0.33 0 0.66 0 1 0 C2.03387512 8.0125322 2.10466648 15.92905177 2 24 C-1.75730247 22.3718356 -4.616823 19.98598083 -7.75 17.375 C-8.73484375 16.55773437 -9.7196875 15.74046875 -10.734375 14.8984375 C-11.48203125 14.27195312 -12.2296875 13.64546875 -13 13 C-12.67 12.34 -12.34 11.68 -12 11 C-8.37 13.31 -4.74 15.62 -1 18 C-1.01740234 16.17662109 -1.01740234 16.17662109 -1.03515625 14.31640625 C-1.04453278 12.73177236 -1.05363313 11.14713682 -1.0625 9.5625 C-1.07087891 8.76005859 -1.07925781 7.95761719 -1.08789062 7.13085938 C-1.0965143 5.08704779 -1.0522815 3.04316098 -1 1 C-0.67 0.67 -0.34 0.34 0 0 Z " fill="#222422" transform="translate(76,36)"/>
<path d="M0 0 C3.1875 -0.0625 3.1875 -0.0625 7 1 C9.13056077 3.7950426 10.59235109 6.78900363 12 10 C10.68 11.65 9.36 13.3 8 15 C5.03 10.71 2.06 6.42 -1 2 C-0.67 1.34 -0.34 0.68 0 0 Z " fill="#33290D" transform="translate(104,45)"/>
<path d="M0 0 C5.67276511 -0.29341888 8.99067246 -0.00559652 14 3 C13.34 4.65 12.68 6.3 12 8 C12.99 8.33 13.98 8.66 15 9 C14.01 9.33 13.02 9.66 12 10 C12 14.62 12 19.24 12 24 C11.01 24.33 10.02 24.66 9 25 C9.01160156 24.0821875 9.02320313 23.164375 9.03515625 22.21875 C9.08301493 15.70996973 9.02900697 9.43129355 8 3 C5.36 2.34 2.72 1.68 0 1 C0 0.67 0 0.34 0 0 Z " fill="#413D2B" transform="translate(145,44)"/>
<path d="M0 0 C0.33 0 0.66 0 1 0 C1 6.27 1 12.54 1 19 C-4.64285714 13.35714286 -4.64285714 13.35714286 -6 11 C-6 6.10051565 -3.1782372 3.41660499 0 0 Z " fill="#FAFAF9" transform="translate(127,51)"/>
<path d="M0 0 C0 0.99 0 1.98 0 3 C-7.26 3 -14.52 3 -22 3 C-22 7.62 -22 12.24 -22 17 C-24.42130331 13.36804504 -24.21022785 11.61650652 -24.125 7.3125 C-24.09792969 5.54326172 -24.09792969 5.54326172 -24.0703125 3.73828125 C-24.04710938 2.83464844 -24.02390625 1.93101563 -24 1 C-20.56255588 0.83216738 -17.12503622 0.66593456 -13.6875 0.5 C-12.22280273 0.42845703 -12.22280273 0.42845703 -10.72851562 0.35546875 C-9.79072266 0.31035156 -8.85292969 0.26523437 -7.88671875 0.21875 C-7.02264404 0.17685547 -6.15856934 0.13496094 -5.26831055 0.09179688 C-3.51337696 0.02077599 -1.75637008 0 0 0 Z " fill="#423E2F" transform="translate(106,54)"/>
<path d="M0 0 C2.1875 0 2.1875 0 5 1 C7.34229342 3.88038786 10 7.18819372 10 11 C9.34 11 8.68 11 8 11 C8 11.66 8 12.32 8 13 C6.25 12.9375 6.25 12.9375 4 12 C1.16742874 7.90850818 -0.61838818 5.10170244 0 0 Z " fill="#1C1B14" transform="translate(119,63)"/>
<path d="M0 0 C0.66 0 1.32 0 2 0 C2.33 3.63 2.66 7.26 3 11 C4.32 11.33 5.64 11.66 7 12 C7 12.66 7 13.32 7 14 C6.01 14.495 6.01 14.495 5 15 C4.30906104 17.57951874 4.30906104 17.57951874 3.875 20.5625 C3.70742187 21.57441406 3.53984375 22.58632813 3.3671875 23.62890625 C3.24601562 24.41136719 3.12484375 25.19382812 3 26 C0.54293443 23.82818742 0.03684919 23.36112209 -0.3125 19.9375 C0 17 0 17 2 15 C1.34 14.34 0.68 13.68 0 13 C-0.1953125 9.9609375 -0.1953125 9.9609375 -0.125 6.375 C-0.10695313 5.18648437 -0.08890625 3.99796875 -0.0703125 2.7734375 C-0.04710938 1.85820312 -0.02390625 0.94296875 0 0 Z " fill="#161718" transform="translate(67,17)"/>
<path d="M0 0 C0.75 1.6875 0.75 1.6875 1 4 C-0.78517826 6.64698845 -2.12021246 8.56010623 -5 10 C-7.71760108 10.07181821 -10.40859388 10.09299506 -13.125 10.0625 C-13.87910156 10.05798828 -14.63320312 10.05347656 -15.41015625 10.04882812 C-17.27347127 10.03703499 -19.13674555 10.01909942 -21 10 C-20.67 9.01 -20.34 8.02 -20 7 C-18.89140625 6.99742188 -17.7828125 6.99484375 -16.640625 6.9921875 C-15.17704318 6.95465976 -13.71350226 6.91551217 -12.25 6.875 C-11.52039063 6.87757812 -10.79078125 6.88015625 -10.0390625 6.8828125 C-7.57978402 6.85319703 -7.57978402 6.85319703 -4 6 C-1.4317509 3.10994549 -1.4317509 3.10994549 0 0 Z " fill="#070601" transform="translate(109,65)"/>
<path d="M0 0 C2.125 0.375 2.125 0.375 4 1 C3.34 1 2.68 1 2 1 C1.19347492 3.88167681 0.82484994 6.56031547 0.68359375 9.546875 C0.64169922 10.39121094 0.59980469 11.23554687 0.55664062 12.10546875 C0.51732422 12.97816406 0.47800781 13.85085937 0.4375 14.75 C0.37272461 16.08224609 0.37272461 16.08224609 0.30664062 17.44140625 C0.20086385 19.62745963 0.09877454 21.81362089 0 24 C-1.65 24.33 -3.3 24.66 -5 25 C-4.69217504 23.35328588 -4.37860766 21.70764424 -4.0625 20.0625 C-3.88847656 19.14597656 -3.71445313 18.22945312 -3.53515625 17.28515625 C-3 15 -3 15 -2 14 C-1.96828815 10.92395088 -2.06853857 7.85984547 -2.16015625 4.78515625 C-2 2 -2 2 0 0 Z " fill="#817D6E" transform="translate(208,52)"/>
<path d="M0 0 C0.66 0 1.32 0 2 0 C2.13277344 0.61488281 2.26554688 1.22976562 2.40234375 1.86328125 C2.57894531 2.67152344 2.75554687 3.47976562 2.9375 4.3125 C3.19853516 5.51326172 3.19853516 5.51326172 3.46484375 6.73828125 C3.99886159 9.145401 3.99886159 9.145401 5 12 C4.0625 14.1875 4.0625 14.1875 3 16 C1 14.6875 1 14.6875 -1 12 C-1.41423068 8.30958124 -1.37244965 4.6939678 -1 1 C-0.67 0.67 -0.34 0.34 0 0 Z " fill="#2C250D" transform="translate(129,57)"/>
<path d="M0 0 C0.99 0.33 1.98 0.66 3 1 C2.67 1.99 2.34 2.98 2 4 C4.64458379 5.32229189 6.67761301 5.09677194 9.625 5.0625 C10.62789062 5.05347656 11.63078125 5.04445313 12.6640625 5.03515625 C13.82035156 5.01775391 13.82035156 5.01775391 15 5 C15.28875 4.360625 15.5775 3.72125 15.875 3.0625 C17 1 17 1 19 0 C18.07349738 3.42805969 17.33885367 4.76602961 14.375 6.8125 C10.11772297 8.31043081 7.50580165 8.42912397 3 8 C0 6.5 0 6.5 -2 5 C-1.125 1.125 -1.125 1.125 0 0 Z " fill="#4F4E48" transform="translate(161,70)"/>
<path d="M0 0 C0.66 0.33 1.32 0.66 2 1 C2 2.32 2 3.64 2 5 C2.66 5.33 3.32 5.66 4 6 C4.33 6.99 4.66 7.98 5 9 C6.8653245 10.01754868 6.8653245 10.01754868 9.0625 10.6875 C9.79597656 10.93886719 10.52945313 11.19023438 11.28515625 11.44921875 C11.85105469 11.63097656 12.41695312 11.81273437 13 12 C12.67 12.66 12.34 13.32 12 14 C8.37 13.01 4.74 12.02 1 11 C0.34 12.32 -0.32 13.64 -1 15 C-1.02703381 13.06257659 -1.04641125 11.12504521 -1.0625 9.1875 C-1.07410156 8.10855469 -1.08570313 7.02960937 -1.09765625 5.91796875 C-1 3 -1 3 0 0 Z " fill="#575240" transform="translate(184,51)"/>
<path d="M0 0 C1.9375 0.6875 1.9375 0.6875 4 2 C4.75 4.625 4.75 4.625 5 7 C6.1446875 6.87625 6.1446875 6.87625 7.3125 6.75 C10 7 10 7 11.8125 8.6875 C13.17577792 11.34230436 13.24535485 13.05574183 13 16 C7.125 12.25 7.125 12.25 6 10 C5.01 9.67 4.02 9.34 3 9 C1.875 5.5625 1.875 5.5625 1 2 C0.67 1.34 0.34 0.68 0 0 Z " fill="#6B6D6F" transform="translate(56,30)"/>
<path d="M0 0 C1.18613892 0.00785522 1.18613892 0.00785522 2.39624023 0.01586914 C3.67724609 0.02070312 3.67724609 0.02070312 4.98413086 0.02563477 C5.88196289 0.03401367 6.77979492 0.04239258 7.70483398 0.05102539 C8.6065332 0.05553711 9.50823242 0.06004883 10.43725586 0.06469727 C12.67234712 0.07652315 14.90730835 0.09300319 17.14233398 0.11352539 C17.14233398 0.77352539 17.14233398 1.43352539 17.14233398 2.11352539 C13.65186794 3.27701407 10.81956381 3.28187315 7.14233398 3.30102539 C5.90483398 3.31520508 4.66733398 3.32938477 3.39233398 3.34399414 C0.14233398 3.11352539 0.14233398 3.11352539 -2.85766602 1.11352539 C-1.85766602 0.11352539 -1.85766602 0.11352539 0 0 Z " fill="#141102" transform="translate(88.857666015625,51.886474609375)"/>
<path d="M0 0 C1.5003479 0.07069702 1.5003479 0.07069702 3.03100586 0.14282227 C4.1105957 0.19116211 5.19018555 0.23950195 6.30249023 0.28930664 C7.43879883 0.34538086 8.57510742 0.40145508 9.74584961 0.45922852 C11.45611328 0.53753906 11.45611328 0.53753906 13.20092773 0.61743164 C16.02864984 0.74757785 18.85605961 0.8825573 21.68334961 1.02172852 C21.68334961 1.35172852 21.68334961 1.68172852 21.68334961 2.02172852 C14.09334961 2.02172852 6.50334961 2.02172852 -1.31665039 2.02172852 C-1.31665039 5.98172852 -1.31665039 9.94172852 -1.31665039 14.02172852 C-3.50506393 10.73910821 -3.56519704 9.70381954 -3.50415039 5.89672852 C-3.49770508 5.00727539 -3.49125977 4.11782227 -3.48461914 3.20141602 C-3.25117002 0.17200647 -3.05386082 0.02864302 0 0 Z " fill="#948D78" transform="translate(85.316650390625,36.978271484375)"/>
<path d="M0 0 C0.33 1.32 0.66 2.64 1 4 C-2.04172719 4.0271045 -5.08320997 4.04688964 -8.125 4.0625 C-8.9809375 4.07087891 -9.836875 4.07925781 -10.71875 4.08789062 C-15.26678411 4.10538306 -19.52383164 3.93192358 -24 3 C-24 2.67 -24 2.34 -24 2 C-23.01604248 1.96241577 -23.01604248 1.96241577 -22.01220703 1.92407227 C-19.04959817 1.8082674 -16.08731969 1.68547114 -13.125 1.5625 C-12.09246094 1.52318359 -11.05992188 1.48386719 -9.99609375 1.44335938 C-9.00996094 1.40146484 -8.02382812 1.35957031 -7.0078125 1.31640625 C-6.09660645 1.27974854 -5.18540039 1.24309082 -4.24658203 1.20532227 C-1.96516519 1.13422935 -1.96516519 1.13422935 0 0 Z " fill="#4E4425" transform="translate(107,34)"/>
<path d="M0 0 C1.98 0 3.96 0 6 0 C5.67 0.66 5.34 1.32 5 2 C5.08910158 4.55807762 5.23294246 7.0762601 5.4375 9.625 C5.48970703 10.33140625 5.54191406 11.0378125 5.59570312 11.765625 C5.72541207 13.51079987 5.86204954 15.25545725 6 17 C5.34 16.67 4.68 16.34 4 16 C3.5859375 13.93359375 3.5859375 13.93359375 3.375 11.4375 C3.30023438 10.61121094 3.22546875 9.78492188 3.1484375 8.93359375 C3.07496094 7.97646484 3.07496094 7.97646484 3 7 C2.01 7.33 1.02 7.66 0 8 C0 5.36 0 2.72 0 0 Z " fill="#59513A" transform="translate(128,50)"/>
<path d="M0 0 C0.33 0.99 0.66 1.98 1 3 C1.99 3.33 2.98 3.66 4 4 C3.01 4.33 2.02 4.66 1 5 C0.26676204 7.01508358 0.26676204 7.01508358 0 9 C0 8.34 0 7.68 0 7 C-3.59478807 10.32850747 -6.22364768 13.98971331 -9 18 C-9.33 17.01 -9.66 16.02 -10 15 C-8.63671875 12.7734375 -8.63671875 12.7734375 -6.6875 10.375 C-6.05199219 9.57835938 -5.41648437 8.78171875 -4.76171875 7.9609375 C-3 6 -3 6 -1 5 C-0.34444881 2.47266765 -0.34444881 2.47266765 0 0 Z " fill="#4F4C3E" transform="translate(118,58)"/>
<path d="M0 0 C0.33 0.66 0.66 1.32 1 2 C0.43410156 2.77085938 -0.13179687 3.54171875 -0.71484375 4.3359375 C-1.44832031 5.33882813 -2.18179688 6.34171875 -2.9375 7.375 C-4.03384766 8.87160156 -4.03384766 8.87160156 -5.15234375 10.3984375 C-6.9779569 12.82817109 -6.9779569 12.82817109 -8 15 C-9.32 14.67 -10.64 14.34 -12 14 C-11.195625 13.278125 -10.39125 12.55625 -9.5625 11.8125 C-6.81492417 9.30482303 -6.81492417 9.30482303 -6.5625 6.4375 C-6 4 -6 4 -2.9375 1.6875 C-1.968125 1.130625 -0.99875 0.57375 0 0 Z " fill="#151306" transform="translate(116,60)"/>
<path d="M0 0 C0.66 0.33 1.32 0.66 2 1 C-1.76074246 5.21659003 -4.84906044 7.0188694 -10 9 C-11.58272601 10.58272601 -11.34735747 12.38034003 -11.5625 14.5625 C-11.64628906 15.38878906 -11.73007813 16.21507813 -11.81640625 17.06640625 C-11.87699219 17.70449219 -11.93757813 18.34257813 -12 19 C-12.33 19 -12.66 19 -13 19 C-13.63568696 15.48959534 -13.84735524 12.48582663 -13 9 C-10.03660305 5.99294343 -6.67453892 4.03690976 -3 2 C-2.01 1.34 -1.02 0.68 0 0 Z " fill="#5F5F5B" transform="translate(87,27)"/>
<path d="M0 0 C2 2 2 2 2.125 5.625 C2.08375 6.73875 2.0425 7.8525 2 9 C1.34 8.01 0.68 7.02 0 6 C-2.64 9.63 -5.28 13.26 -8 17 C-8.33 16.34 -8.66 15.68 -9 15 C-7.63671875 12.5390625 -7.63671875 12.5390625 -5.6875 9.625 C-3.59715887 6.4788882 -1.59931251 3.42593847 0 0 Z " fill="#494A48" transform="translate(70,5)"/>
<path d="M0 0 C0 0.66 0 1.32 0 2 C-6.48520992 5.24260496 -16.9766387 2.87015096 -24 2 C-24 1.67 -24 1.34 -24 1 C-20.56255588 0.83216738 -17.12503622 0.66593456 -13.6875 0.5 C-12.22280273 0.42845703 -12.22280273 0.42845703 -10.72851562 0.35546875 C-9.79072266 0.31035156 -8.85292969 0.26523437 -7.88671875 0.21875 C-7.02264404 0.17685547 -6.15856934 0.13496094 -5.26831055 0.09179688 C-3.51337696 0.02077599 -1.75637008 0 0 0 Z " fill="#241C00" transform="translate(107,33)"/>
<path d="M0 0 C0 0.99 0 1.98 0 3 C-3.61973402 4.31626692 -6.09567131 5 -10 5 C-8.94958421 2.13522966 -8.29875437 1.16086774 -5.5625 -0.3125 C-3 -1 -3 -1 0 0 Z " fill="#292108" transform="translate(219,45)"/>
<path d="M0 0 C0.66 0 1.32 0 2 0 C3.625 2.5 3.625 2.5 5 5 C4.01 5.495 4.01 5.495 3 6 C2.01 7.485 2.01 7.485 1 9 C-0.32 8.34 -1.64 7.68 -3 7 C-1.125 1.125 -1.125 1.125 0 0 Z " fill="#6A6960" transform="translate(182,67)"/>
<path d="M0 0 C1.70915152 0.97187047 3.41712703 1.94590679 5.1171875 2.93359375 C6.65212051 3.80296452 8.22771717 4.60021728 9.8125 5.375 C12.7049904 7.52370716 13.16102504 9.56782973 14 13 C4.08805031 5.67924528 4.08805031 5.67924528 0 2 C0 1.34 0 0.68 0 0 Z " fill="#6F707C" transform="translate(63,47)"/>
<path d="M0 0 C0.33 1.32 0.66 2.64 1 4 C0.34 3.67 -0.32 3.34 -1 3 C-2.49649362 2.87994547 -3.99874793 2.82468549 -5.5 2.8125 C-6.2940625 2.79832031 -7.088125 2.78414062 -7.90625 2.76953125 C-10.22033317 2.80333697 -10.22033317 2.80333697 -12 5 C-12.99 5 -13.98 5 -15 5 C-14 2 -14 2 -12 0.8125 C-7.96195446 -0.28113733 -4.15684292 -0.16301345 0 0 Z " fill="#342B0E" transform="translate(172,47)"/>
<path d="M0 0 C0 0.66 0 1.32 0 2 C-1.65 2 -3.3 2 -5 2 C-5.66 3.32 -6.32 4.64 -7 6 C-8.65 6 -10.3 6 -12 6 C-11.375 4.125 -11.375 4.125 -10 2 C-6.38181456 0.42687589 -3.97906647 0 0 0 Z " fill="#1C1603" transform="translate(193,44)"/>
<path d="M0 0 C0.66 0 1.32 0 2 0 C2.33 3.63 2.66 7.26 3 11 C4.32 11.33 5.64 11.66 7 12 C7 12.66 7 13.32 7 14 C4.69 13.67 2.38 13.34 0 13 C0 8.71 0 4.42 0 0 Z " fill="#0E0E0E" transform="translate(67,17)"/>
<path d="M0 0 C1.32 0 2.64 0 4 0 C4 0.66 4 1.32 4 2 C3.34 2 2.68 2 2 2 C2 6.62 2 11.24 2 16 C-0.42130331 12.36804504 -0.21022785 10.61650652 -0.125 6.3125 C-0.09792969 4.54326172 -0.09792969 4.54326172 -0.0703125 2.73828125 C-0.04710938 1.83464844 -0.02390625 0.93101563 0 0 Z " fill="#6F6C5E" transform="translate(82,55)"/>
<path d="M0 0 C0 0.33 0 0.66 0 1 C-1.60875 1.0928125 -1.60875 1.0928125 -3.25 1.1875 C-7.68634559 2.14870821 -8.4916469 3.3768233 -11 7 C-11.66 7 -12.32 7 -13 7 C-13 9.64 -13 12.28 -13 15 C-13.33 15 -13.66 15 -14 15 C-14.76585232 6.23524568 -14.76585232 6.23524568 -12.0625 1.875 C-7.94613247 -0.64522502 -4.70278047 -0.46105691 0 0 Z " fill="#726B55" transform="translate(171,49)"/>
<path d="M0 0 C5.67276511 -0.29341888 8.99067246 -0.00559652 14 3 C12.68 4.32 11.36 5.64 10 7 C9.46375 6.38125 8.9275 5.7625 8.375 5.125 C5.68896977 2.7217098 3.44585438 1.93977847 0 1 C0 0.67 0 0.34 0 0 Z " fill="#FFFFFF" transform="translate(145,44)"/>
<path d="M0 0 C0.33 1.32 0.66 2.64 1 4 C-3.52648522 6.64964989 -6.75398486 7.50442453 -12 7 C-12.66 6.34 -13.32 5.68 -14 5 C-13.32453125 4.97421875 -12.6490625 4.9484375 -11.953125 4.921875 C-6.24236068 4.65678272 -6.24236068 4.65678272 -1.375 1.9375 C-0.92125 1.298125 -0.4675 0.65875 0 0 Z " fill="#5A5950" transform="translate(152,71)"/>
<path d="M0 0 C2.475 0.495 2.475 0.495 5 1 C5.35233161 6.37305699 5.35233161 6.37305699 5 9 C3 11 3 11 1 12 C1.53725895 8.62294375 2.11064623 5.303314 3 2 C2.01 2 1.02 2 0 2 C0 1.34 0 0.68 0 0 Z " fill="#423F30" transform="translate(202,57)"/>
<path d="M0 0 C2.475 0.99 2.475 0.99 5 2 C4.34 3.98 3.68 5.96 3 8 C1.68 7.67 0.36 7.34 -1 7 C-1 6.34 -1 5.68 -1 5 C-1.99 4.67 -2.98 4.34 -4 4 C-3.34 4 -2.68 4 -2 4 C-2 3.34 -2 2.68 -2 2 C-1.34 2 -0.68 2 0 2 C0 1.34 0 0.68 0 0 Z " fill="#5B5645" transform="translate(203,50)"/>
<path d="M0 0 C0 0.33 0 0.66 0 1 C-1.5778125 1.0309375 -1.5778125 1.0309375 -3.1875 1.0625 C-7.8246787 2.20278985 -8.67744049 3.59168186 -11.0546875 7.50390625 C-11.36664063 7.99761719 -11.67859375 8.49132813 -12 9 C-12.33 9 -12.66 9 -13 9 C-13.47792208 3.62337662 -13.47792208 3.62337662 -11.5625 1.125 C-7.74855449 -0.5494151 -4.10420515 -0.23678107 0 0 Z " fill="#887F67" transform="translate(145,49)"/>
<path d="M0 0 C2.64 0 5.28 0 8 0 C6.33784732 1.33895632 4.67036393 2.67130142 3 4 C1.9171875 4.86625 1.9171875 4.86625 0.8125 5.75 C-1 7 -1 7 -3 7 C-1.125 2.25 -1.125 2.25 0 0 Z " fill="#5F5F51" transform="translate(54,42)"/>
<path d="M0 0 C0.99 0.33 1.98 0.66 3 1 C2.360625 1.763125 1.72125 2.52625 1.0625 3.3125 C-1.14232781 5.88246713 -1.14232781 5.88246713 -2 9 C-2.99 9 -3.98 9 -5 9 C-5 8.34 -5 7.68 -5 7 C-5.66 6.67 -6.32 6.34 -7 6 C-6.34 6 -5.68 6 -5 6 C-4.67 5.34 -4.34 4.68 -4 4 C-3.34 4.33 -2.68 4.66 -2 5 C-1.34 3.35 -0.68 1.7 0 0 Z " fill="#231F0C" transform="translate(123,49)"/>
<path d="M0 0 C1.65 0 3.3 0 5 0 C5 1.65 5 3.3 5 5 C4.236875 4.95875 3.47375 4.9175 2.6875 4.875 C-0.22718416 4.77919176 -0.22718416 4.77919176 -3 7 C-2.690625 6.401875 -2.38125 5.80375 -2.0625 5.1875 C-0.89790296 2.91043228 -0.89790296 2.91043228 0 0 Z " fill="#271F08" transform="translate(202,45)"/>
<path d="M0 0 C9.41002278 -0.3690205 9.41002278 -0.3690205 14 2 C13.01 3.485 13.01 3.485 12 5 C11.505 4.71125 11.01 4.4225 10.5 4.125 C7.08247965 2.58711584 3.6493798 1.85152195 0 1 C0 0.67 0 0.34 0 0 Z " fill="#FFFFFF" transform="translate(169,44)"/>
<path d="M0 0 C0.66 0.33 1.32 0.66 2 1 C1.96744792 3.01822917 1.93489583 5.03645833 1.90234375 7.0546875 C1.87350758 9.08185404 1.87350758 9.08185404 3 11 C2.34 11 1.68 11 1 11 C0.34 12.32 -0.32 13.64 -1 15 C-1.02703381 13.06257659 -1.04641125 11.12504521 -1.0625 9.1875 C-1.07410156 8.10855469 -1.08570313 7.02960937 -1.09765625 5.91796875 C-1 3 -1 3 0 0 Z " fill="#736E5D" transform="translate(184,51)"/>
<path d="M0 0 C0.66 0 1.32 0 2 0 C0.62159784 2.83338222 -0.86418386 5.55688806 -2.5 8.25 C-2.9228125 8.95640625 -3.345625 9.6628125 -3.78125 10.390625 C-4.38453125 11.18726563 -4.38453125 11.18726563 -5 12 C-5.66 12 -6.32 12 -7 12 C-7 11.01 -7 10.02 -7 9 C-6.34 9 -5.68 9 -5 9 C-4.9175 8.443125 -4.835 7.88625 -4.75 7.3125 C-3.76104459 4.26322081 -2.15242534 2.34810037 0 0 Z " fill="#625E4E" transform="translate(126,49)"/>
<path d="M0 0 C0.33 0 0.66 0 1 0 C1 2.97 1 5.94 1 9 C-0.65 9.33 -2.3 9.66 -4 10 C-2.68 6.7 -1.36 3.4 0 0 Z " fill="#8D8D88" transform="translate(207,67)"/>
<path d="M0 0 C0.33 0 0.66 0 1 0 C1.33 4.29 1.66 8.58 2 13 C0.68 12.34 -0.64 11.68 -2 11 C-1.40049704 7.31733897 -0.75241109 3.65456815 0 0 Z " fill="#3A3E3F" transform="translate(71,36)"/>
<path d="M0 0 C1.2065625 0.0309375 1.2065625 0.0309375 2.4375 0.0625 C1.4475 0.3925 0.4575 0.7225 -0.5625 1.0625 C-0.2325 1.7225 0.0975 2.3825 0.4375 3.0625 C2.75906597 3.46979228 5.0943787 3.80688677 7.4375 4.0625 C7.4375 4.3925 7.4375 4.7225 7.4375 5.0625 C4.1375 5.0625 0.8375 5.0625 -2.5625 5.0625 C-2.8925 3.7425 -3.2225 2.4225 -3.5625 1.0625 C-2.5625 0.0625 -2.5625 0.0625 0 0 Z " fill="#3B392F" transform="translate(187.5625,71.9375)"/>
<path d="M0 0 C3.875 0.875 3.875 0.875 5 2 C5.04063832 3.66617115 5.042721 5.33388095 5 7 C3.02 5.68 1.04 4.36 -1 3 C-0.67 2.01 -0.34 1.02 0 0 Z " fill="#616365" transform="translate(64,39)"/>
<path d="M0 0 C0.99 0.33 1.98 0.66 3 1 C3.125 6.75 3.125 6.75 2 9 C1.34 9 0.68 9 0 9 C0 6.03 0 3.06 0 0 Z " fill="#18160A" transform="translate(128,80)"/>
<path d="M0 0 C0.66 0 1.32 0 2 0 C2.33 3.63 2.66 7.26 3 11 C4.98 11 6.96 11 9 11 C9 11.33 9 11.66 9 12 C6.6739143 12.38063221 4.33944736 12.71269945 2 13 C0.18884044 11.18884044 0.61800552 8.38721773 0.4375 5.9375 C0.35371094 4.83277344 0.26992187 3.72804688 0.18359375 2.58984375 C0.09271484 1.30787109 0.09271484 1.30787109 0 0 Z " fill="#313639" transform="translate(68,16)"/>
<path d="M0 0 C5.94 0.99 5.94 0.99 12 2 C12 2.33 12 2.66 12 3 C7.28400182 3.92470553 4.32734391 4.22923777 0 2 C0 1.34 0 0.68 0 0 Z " fill="#2B2C23" transform="translate(49,27)"/>
<path d="M0 0 C0.99 0.33 1.98 0.66 3 1 C2.67 1.99 2.34 2.98 2 4 C2.66 4.66 3.32 5.32 4 6 C2.35 6 0.7 6 -1 6 C-1.625 4.125 -1.625 4.125 -2 2 C-1.34 1.34 -0.68 0.68 0 0 Z " fill="#373426" transform="translate(161,70)"/>
<path d="M0 0 C0.99 0.33 1.98 0.66 3 1 C3 5.62 3 10.24 3 15 C2.67 15 2.34 15 2 15 C1.93941406 14.33613281 1.87882813 13.67226562 1.81640625 12.98828125 C1.20136493 6.45091919 1.20136493 6.45091919 0 0 Z " fill="#282617" transform="translate(179,51)"/>
<path d="M0 0 C5.75 1.625 5.75 1.625 8 5 C5.69 5 3.38 5 1 5 C0.67 3.35 0.34 1.7 0 0 Z " fill="#2A2309" transform="translate(81,50)"/>
<path d="M0 0 C2.475 0.495 2.475 0.495 5 1 C4.34 1.66 3.68 2.32 3 3 C5.97 3.33 8.94 3.66 12 4 C12 4.33 12 4.66 12 5 C8.37 5 4.74 5 1 5 C0.67 3.35 0.34 1.7 0 0 Z " fill="#252213" transform="translate(136,71)"/>
<path d="M0 0 C2.475 0.495 2.475 0.495 5 1 C5.33 1.99 5.66 2.98 6 4 C4.02 4.33 2.04 4.66 0 5 C0 3.35 0 1.7 0 0 Z " fill="#29271A" transform="translate(119,63)"/>
<path d="M0 0 C1.08667969 0.19464844 2.17335938 0.38929687 3.29296875 0.58984375 C4.54013672 0.82380859 4.54013672 0.82380859 5.8125 1.0625 C5.8125 1.3925 5.8125 1.7225 5.8125 2.0625 C3.68777424 2.11636629 1.56266348 2.15523071 -0.5625 2.1875 C-2.33753906 2.22230469 -2.33753906 2.22230469 -4.1484375 2.2578125 C-7.1875 2.0625 -7.1875 2.0625 -9.1875 0.0625 C-5.61369658 -1.12876781 -3.67866698 -0.6724445 0 0 Z " fill="#46494B" transform="translate(82.1875,23.9375)"/>
<path d="M0 0 C1.85776765 3.13498292 2.20140476 5.37471432 2 9 C1.01 8.67 0.02 8.34 -1 8 C-1.04241723 5.66705225 -1.04092937 3.33297433 -1 1 C-0.67 0.67 -0.34 0.34 0 0 Z " fill="#1A1606" transform="translate(129,61)"/>
<path d="M0 0 C0.99 0 1.98 0 3 0 C2.33333333 4 1.66666667 8 1 12 C0.67 12 0.34 12 0 12 C0 8.04 0 4.08 0 0 Z " fill="#1D1B0E" transform="translate(202,59)"/>
<path d="M0 0 C2 2 2 2 2.125 5.625 C2.08375 6.73875 2.0425 7.8525 2 9 C1.34 8.01 0.68 7.02 0 6 C-0.99 6.33 -1.98 6.66 -3 7 C-2.690625 6.401875 -2.38125 5.80375 -2.0625 5.1875 C-0.89790296 2.91043228 -0.89790296 2.91043228 0 0 Z " fill="#40413D" transform="translate(70,5)"/>
<path d="M0 0 C2.31 0 4.62 0 7 0 C7 0.99 7 1.98 7 3 C4.03 2.505 4.03 2.505 1 2 C0.67 2.66 0.34 3.32 0 4 C0 2.68 0 1.36 0 0 Z " fill="#211A05" transform="translate(126,45)"/>
<path d="M0 0 C2.02045442 0.60183749 4.02111039 1.27306096 6 2 C6.33 2.66 6.66 3.32 7 4 C6.0625 6.125 6.0625 6.125 5 8 C4.54625 7.236875 4.0925 6.47375 3.625 5.6875 C2.46175508 3.76367186 1.2470585 1.87058776 0 0 Z " fill="#3D3C27" transform="translate(52,30)"/>
<path d="M0 0 C0.99 0.33 1.98 0.66 3 1 C2.34 1 1.68 1 1 1 C1 2.98 1 4.96 1 7 C-0.65 5.68 -2.3 4.36 -4 3 C-3.01 3 -2.02 3 -1 3 C-0.67 2.01 -0.34 1.02 0 0 Z " fill="#737167" transform="translate(132,74)"/>
<path d="M0 0 C0 0.99 0 1.98 0 3 C-1.65 3.66 -3.3 4.32 -5 5 C-5.33 3.68 -5.66 2.36 -6 1 C-4.02 0.67 -2.04 0.34 0 0 Z " fill="#494A4C" transform="translate(96,23)"/>
<path d="M0 0 C6.875 3.75 6.875 3.75 8 6 C4.65750371 5.40312566 2.53563658 4.26396123 0 2 C0 1.34 0 0.68 0 0 Z " fill="#38373D" transform="translate(63,47)"/>
<path d="M0 0 C-0.33 0.99 -0.66 1.98 -1 3 C-1.99 3.33 -2.98 3.66 -4 4 C-4 3.34 -4 2.68 -4 2 C-6.31 2 -8.62 2 -11 2 C-11 1.67 -11 1.34 -11 1 C-9.54182203 0.83197949 -8.0834516 0.66562857 -6.625 0.5 C-5.81289062 0.4071875 -5.00078125 0.314375 -4.1640625 0.21875 C-2 0 -2 0 0 0 Z " fill="#5E5E61" transform="translate(82,27)"/>
</svg>
